<?xml version="1.0" encoding="utf-8"?>
<!-- Generator: Adobe Illustrator 22.0.1, SVG Export Plug-In . SVG Version: 6.00 Build 0)  -->
<svg version="1.1" id="Layer_1" xmlns="http://www.w3.org/2000/svg" xmlns:xlink="http://www.w3.org/1999/xlink" x="0px" y="0px"
	 viewBox="0 0 250 250" style="enable-background:new 0 0 250 250;" xml:space="preserve">
<style type="text/css">
	.st0{fill:#FFFFFF;}
</style>
<g>
	<g>
		<path class="st0" d="M230.4,200.5H42.6c-1.6,0-2.8-1.3-2.8-2.8V53.8c0-1.6,1.3-2.8,2.8-2.8s2.8,1.3,2.8,2.8v141h185
			c1.6,0,2.8,1.3,2.8,2.8C233.2,199.2,232,200.5,230.4,200.5z"/>
	</g>
	<g>
		<path class="st0" d="M54.4,73.3c-0.9,0-1.8-0.4-2.3-1.2l-9.5-13.4l-9.5,13.4c-0.9,1.3-2.7,1.6-3.9,0.7c-1.3-0.9-1.6-2.7-0.7-3.9
			l11.8-16.7c1.1-1.5,3.6-1.5,4.6,0l11.8,16.7c0.9,1.3,0.6,3-0.7,3.9C55.5,73.2,55,73.3,54.4,73.3z"/>
	</g>
	<g>
		<path class="st0" d="M216,210.8c-0.9,0-1.8-0.4-2.3-1.2c-0.9-1.3-0.6-3,0.7-3.9l11.3-7.9l-11.3-7.9c-1.3-0.9-1.6-2.7-0.7-3.9
			c0.9-1.3,2.7-1.6,3.9-0.7l14.5,10.2c0.7,0.5,1.2,1.4,1.2,2.3c0,0.9-0.4,1.8-1.2,2.3l-14.5,10.2C217.1,210.6,216.6,210.8,216,210.8
			z"/>
	</g>
	<g>
		<path class="st0" d="M42.9,134.9c-0.9,0-1.8-0.4-2.3-1.2c-0.9-1.3-0.6-3,0.7-3.9l48.8-33.6c0.8-0.6,1.9-0.7,2.9-0.2l35.4,17.7
			L187,73.2c1.3-0.9,3-0.6,3.9,0.7c0.9,1.3,0.6,3-0.7,3.9l-60,41.4c-0.9,0.6-1.9,0.7-2.9,0.2l-35.4-17.7l-47.4,32.7
			C44,134.7,43.5,134.9,42.9,134.9z"/>
	</g>
	<g>
		<path class="st0" d="M180,91c-0.1,0-0.1,0-0.2,0c-0.8-0.1-1.6-0.5-2.1-1.2l-6.5-9.2c-0.5-0.7-0.6-1.6-0.4-2.4
			c0.2-0.8,0.8-1.5,1.6-1.8l25.6-11c1.2-0.5,2.6-0.1,3.4,1c0.8,1.1,0.7,2.6-0.3,3.5l-19.1,20.2C181.5,90.7,180.8,91,180,91z
			 M177.9,80.2l2.5,3.6l7.4-7.8L177.9,80.2z"/>
	</g>
	<g>
		<path class="st0" d="M110,193.6H84.3c-1.6,0-2.8-1.3-2.8-2.8v-59.2c0-1.6,1.3-2.8,2.8-2.8H110c1.6,0,2.8,1.3,2.8,2.8v59.2
			C112.8,192.4,111.6,193.6,110,193.6z M87.1,188h20.1v-53.5H87.1V188z"/>
	</g>
	<g>
		<path class="st0" d="M145.8,193.6H120c-1.6,0-2.8-1.3-2.8-2.8v-45.2c0-1.6,1.3-2.8,2.8-2.8h25.7c1.6,0,2.8,1.3,2.8,2.8v45.2
			C148.6,192.4,147.3,193.6,145.8,193.6z M122.8,188h20.1v-39.5h-20.1V188z"/>
	</g>
	<g>
		<path class="st0" d="M181.5,193.4h-25.7c-1.6,0-2.8-1.3-2.8-2.8v-77.4c0-1.6,1.3-2.8,2.8-2.8h25.7c1.6,0,2.8,1.3,2.8,2.8v77.4
			C184.3,192.1,183.1,193.4,181.5,193.4z M158.6,187.7h20.1V116h-20.1V187.7z"/>
	</g>
	<g>
		<path class="st0" d="M74.2,193.6H48.5c-1.6,0-2.8-1.3-2.8-2.8v-37.6c0-1.6,1.3-2.8,2.8-2.8h25.7c1.6,0,2.8,1.3,2.8,2.8v37.6
			C77,192.4,75.8,193.6,74.2,193.6z M51.3,188h20.1v-31.9H51.3V188z"/>
	</g>
</g>
</svg>
