<?xml version="1.0" encoding="utf-8"?>
<!-- Generator: Adobe Illustrator 23.1.1, SVG Export Plug-In . SVG Version: 6.00 Build 0)  -->
<svg version="1.1" id="Layer_1" xmlns="http://www.w3.org/2000/svg" xmlns:xlink="http://www.w3.org/1999/xlink" x="0px" y="0px"
	 viewBox="0 0 250 250" style="enable-background:new 0 0 250 250;" xml:space="preserve">
<style type="text/css">
	.st0{fill-rule:evenodd;clip-rule:evenodd;fill:#9C182F;}
</style>
<g>
	<path class="st0" d="M125.5,209.4c-23.3,0-44.3-9.5-59.6-24.8s-24.8-36.4-24.8-59.7c0-23.2,9.5-44.3,24.8-59.7
		c15.3-15.3,36.3-24.8,59.6-24.8s44.3,9.5,59.6,24.8s24.8,36.5,24.8,59.7c0,23.3-9.5,44.4-24.8,59.7
		C169.8,200,148.9,209.4,125.5,209.4L125.5,209.4z M125.5,165.8c-1.9,0-3.5-1-5-2.3c-1.3-1.2-2.1-3-2.1-4.6v-27H91.7
		c-1.8,0-3.5-0.7-4.8-1.9c-1.1-1.3-1.9-3.1-1.9-5.1c0-1.9,0.8-3.7,1.9-5c1.3-1.1,3-1.9,4.8-1.9h26.7V91.1c0-1.8,0.8-3.4,2.1-4.7
		c1.3-1.2,3.1-2.1,5-2.1s3.7,0.9,5,2.1c1.3,1.3,2.1,2.9,2.1,4.7V118h26.7c1.8,0,3.6,0.8,4.8,1.9c1.1,1.3,2.3,3.1,2.3,5
		c0,2-1.1,3.8-2.3,5.1c-1.2,1.1-3,1.9-4.8,1.9h-26.7v27c0,1.6-0.8,3.4-2.1,4.6C129.2,164.8,127.4,165.8,125.5,165.8L125.5,165.8z
		 M125.5,54.5L125.5,54.5c-19.5,0-37,7.8-49.9,20.7C62.9,87.9,55.2,105.4,55.2,125s7.7,37.1,20.4,49.9
		c12.9,12.8,30.5,20.6,49.9,20.6c19.5,0,37-7.8,49.9-20.6c12.7-12.8,20.4-30.3,20.4-49.9c0-19.5-7.7-37.1-20.4-49.7
		C162.5,62.3,145,54.5,125.5,54.5L125.5,54.5z"/>
</g>
</svg>
