<?xml version="1.0" encoding="utf-8"?>
<!-- Generator: Adobe Illustrator 23.1.1, SVG Export Plug-In . SVG Version: 6.00 Build 0)  -->
<svg version="1.1" id="Layer_1" xmlns="http://www.w3.org/2000/svg" xmlns:xlink="http://www.w3.org/1999/xlink" x="0px" y="0px"
	 viewBox="0 0 250 250" style="enable-background:new 0 0 250 250;" xml:space="preserve">
<style type="text/css">
	.st0{fill:#9C182F;}
</style>
<g id="XMLID_1_">
	<path id="XMLID_38_" class="st0" d="M213.9,112.8h-55.8V64c0-1.8-1.4-3.2-3.2-3.2H95.1c-1.8,0-3.2,1.4-3.2,3.2v21.2H36.1
		c-1.8,0-3.2,1.4-3.2,3.2V186c0,1.8,1.4,3.2,3.2,3.2h59h59.9h0h59c1.8,0,3.2-1.4,3.2-3.2v-70C217.1,114.3,215.7,112.8,213.9,112.8z
		 M179.1,156.3h10.7v27.9h-10.7V156.3z M210.7,182.8h-17.1v-28.5c0-1.1-0.9-1.9-1.9-1.9h-14.5c-1.1,0-1.9,0.9-1.9,1.9v28.5h-17.1
		v-63.6h52.6V182.8z M39.3,91.6h52.6v91.3H74.7v-28.5c0-1.1-0.9-1.9-1.9-1.9H58.3c-1.1,0-1.9,0.9-1.9,1.9v28.5H39.3V91.6z
		 M60.2,156.3h10.7v27.9H60.2V156.3z M151.7,116v66.8h-18.4v-28.5c0-1.1-0.9-1.9-1.9-1.9h-14.5c-1.1,0-1.9,0.9-1.9,1.9v28.5H98.3
		V88.4V67.2h53.5v48.5C151.8,115.8,151.7,115.9,151.7,116z M118.8,184.1v-27.9h10.7v27.9H118.8z"/>
	<path id="XMLID_35_" class="st0" d="M121.5,79.3h-14.3c-1.1,0-1.9,0.9-1.9,1.9v14.3c0,1.1,0.9,1.9,1.9,1.9h14.3
		c1.1,0,1.9-0.9,1.9-1.9V81.2C123.4,80.2,122.6,79.3,121.5,79.3z M119.6,93.6h-10.5V83.1h10.5V93.6z"/>
	<path id="XMLID_32_" class="st0" d="M143.3,79.3H129c-1.1,0-1.9,0.9-1.9,1.9v14.3c0,1.1,0.9,1.9,1.9,1.9h14.3
		c1.1,0,1.9-0.9,1.9-1.9V81.2C145.2,80.2,144.3,79.3,143.3,79.3z M141.4,93.6h-10.5V83.1h10.5V93.6z"/>
	<path id="XMLID_29_" class="st0" d="M121.5,102.8h-14.3c-1.1,0-1.9,0.9-1.9,1.9V119c0,1.1,0.9,1.9,1.9,1.9h14.3
		c1.1,0,1.9-0.9,1.9-1.9v-14.3C123.4,103.6,122.6,102.8,121.5,102.8z M119.6,117.1h-10.5v-10.5h10.5V117.1z"/>
	<path id="XMLID_26_" class="st0" d="M143.3,102.8H129c-1.1,0-1.9,0.9-1.9,1.9V119c0,1.1,0.9,1.9,1.9,1.9h14.3
		c1.1,0,1.9-0.9,1.9-1.9v-14.3C145.2,103.6,144.3,102.8,143.3,102.8z M141.4,117.1h-10.5v-10.5h10.5V117.1z"/>
	<path id="XMLID_23_" class="st0" d="M121.5,126.2h-14.3c-1.1,0-1.9,0.9-1.9,1.9v14.3c0,1.1,0.9,1.9,1.9,1.9h14.3
		c1.1,0,1.9-0.9,1.9-1.9v-14.3C123.4,127.1,122.6,126.2,121.5,126.2z M119.6,140.5h-10.5v-10.5h10.5V140.5z"/>
	<path id="XMLID_20_" class="st0" d="M143.3,126.2H129c-1.1,0-1.9,0.9-1.9,1.9v14.3c0,1.1,0.9,1.9,1.9,1.9h14.3
		c1.1,0,1.9-0.9,1.9-1.9v-14.3C145.2,127.1,144.3,126.2,143.3,126.2z M141.4,140.5h-10.5v-10.5h10.5V140.5z"/>
	<path id="XMLID_17_" class="st0" d="M47.5,120.9h14.3c1.1,0,1.9-0.9,1.9-1.9v-14.3c0-1.1-0.9-1.9-1.9-1.9H47.5
		c-1.1,0-1.9,0.9-1.9,1.9V119C45.6,120.1,46.5,120.9,47.5,120.9z M49.4,106.6h10.5v10.5H49.4V106.6z"/>
	<path id="XMLID_14_" class="st0" d="M69.3,120.9h14.3c1.1,0,1.9-0.9,1.9-1.9v-14.3c0-1.1-0.9-1.9-1.9-1.9H69.3
		c-1.1,0-1.9,0.9-1.9,1.9V119C67.4,120.1,68.2,120.9,69.3,120.9z M71.2,106.6h10.5v10.5H71.2V106.6z"/>
	<path id="XMLID_11_" class="st0" d="M61.8,144.4c1.1,0,1.9-0.9,1.9-1.9v-14.3c0-1.1-0.9-1.9-1.9-1.9H47.5c-1.1,0-1.9,0.9-1.9,1.9
		v14.3c0,1.1,0.9,1.9,1.9,1.9H61.8z M49.4,130.1h10.5v10.5H49.4V130.1z"/>
	<path id="XMLID_8_" class="st0" d="M69.3,144.4h14.3c1.1,0,1.9-0.9,1.9-1.9v-14.3c0-1.1-0.9-1.9-1.9-1.9H69.3
		c-1.1,0-1.9,0.9-1.9,1.9v14.3C67.4,143.5,68.2,144.4,69.3,144.4z M71.2,130.1h10.5v10.5H71.2V130.1z"/>
	<path id="XMLID_5_" class="st0" d="M166.4,144.4h14.3c1.1,0,1.9-0.9,1.9-1.9v-14.3c0-1.1-0.9-1.9-1.9-1.9h-14.3
		c-1.1,0-1.9,0.9-1.9,1.9v14.3C164.5,143.5,165.3,144.4,166.4,144.4z M168.3,130.1h10.5v10.5h-10.5V130.1z"/>
	<path id="XMLID_2_" class="st0" d="M188.1,144.4h14.3c1.1,0,1.9-0.9,1.9-1.9v-14.3c0-1.1-0.9-1.9-1.9-1.9h-14.3
		c-1.1,0-1.9,0.9-1.9,1.9v14.3C186.2,143.5,187.1,144.4,188.1,144.4z M190.1,130.1h10.5v10.5h-10.5V130.1z"/>
</g>
</svg>
