<?xml version="1.0" encoding="utf-8"?>
<!-- Generator: Adobe Illustrator 22.0.1, SVG Export Plug-In . SVG Version: 6.00 Build 0)  -->
<svg version="1.1" id="Layer_1" xmlns="http://www.w3.org/2000/svg" xmlns:xlink="http://www.w3.org/1999/xlink" x="0px" y="0px"
	 viewBox="0 0 250 250" style="enable-background:new 0 0 250 250;" xml:space="preserve">
<style type="text/css">
	.st0{fill:#FFFFFF;}
</style>
<g>
	<path class="st0" d="M179.2,143.4l-50.7-49.5c-2-1.9-5.1-1.9-7.1,0l-50.7,49.5c-2,1.9-2,5,0,6.9c2,1.9,5.1,1.9,7.1,0l47.2-46.1
		l47.2,46.1c1,1,2.3,1.4,3.5,1.4c1.3,0,2.6-0.5,3.5-1.4C181.2,148.4,181.2,145.4,179.2,143.4z"/>
	<path class="st0" d="M161.8,147.1c-2.8,0-5,2.2-5,4.9v35.2h-18.5v-31.1h-11.5h-3.6h-11.5v1.7l0.5,29.3H93.2V152
		c0-2.7-2.2-4.9-5-4.9c-2.8,0-5,2.2-5,4.9v40.1c0,2.7,2.2,4.9,5,4.9h73.7c2.8,0,5-2.2,5-4.9V152
		C166.8,149.3,164.6,147.1,161.8,147.1z"/>
	<polygon class="st0" points="112.7,74 112.7,94.4 125,82 137.3,94.4 137.3,74 147.3,84 164.7,84.5 125,44.7 85.3,84.5 102.7,84 	
		"/>
</g>
</svg>
