<?xml version="1.0" encoding="utf-8"?>
<!-- Generator: Adobe Illustrator 22.0.1, SVG Export Plug-In . SVG Version: 6.00 Build 0)  -->
<svg version="1.1" id="Layer_1" xmlns="http://www.w3.org/2000/svg" xmlns:xlink="http://www.w3.org/1999/xlink" x="0px" y="0px"
	 viewBox="0 0 250 250" style="enable-background:new 0 0 250 250;" xml:space="preserve">
<style type="text/css">
	.st0{fill:#fff;}
</style>
<g>
	<path class="st0" d="M196.7,173.8H98.3c-1.4,0-2.7-0.9-3.3-2.2L57.3,84.8H22.4c-2,0-3.6-1.6-3.6-3.6V69.8c0-2,1.6-3.6,3.6-3.6h32.3
		c1.4,0,2.7,0.9,3.3,2.2l42.6,98.3h96c2,0,3.6,1.6,3.6,3.6C200.3,172.2,198.7,173.8,196.7,173.8z M26,77.5h28.1l-1.8-4.2H26V77.5z"
		/>
</g>
<g>
	<path class="st0" d="M187.8,162.6h-78.8c-1.5,0-2.8-0.9-3.4-2.3l-22.3-57.4h-4.8c-2,0-3.6-1.6-3.6-3.6v-15c0-2,1.6-3.6,3.6-3.6h46
		c2,0,3.6,1.6,3.6,3.6c0,2-1.6,3.6-3.6,3.6H82.1v7.7h3.7c1.5,0,2.8,0.9,3.4,2.3l22.3,57.4h73.8L207.7,98c0.5-1.4,1.9-2.3,3.4-2.3
		h3.7V88h-41.3c-2,0-3.6-1.6-3.6-3.6c0-2,1.6-3.6,3.6-3.6h44.9c2,0,3.6,1.6,3.6,3.6v15c0,2-1.6,3.6-3.6,3.6h-4.8l-22.3,57.4
		C190.6,161.7,189.3,162.6,187.8,162.6z"/>
</g>
<g>
	<path class="st0" d="M187.5,204.5c-8.5,0-15.4-6.9-15.4-15.4s6.9-15.4,15.4-15.4c8.5,0,15.4,6.9,15.4,15.4S196,204.5,187.5,204.5z
		 M187.5,180.9c-4.5,0-8.2,3.7-8.2,8.2c0,4.5,3.7,8.2,8.2,8.2s8.2-3.7,8.2-8.2C195.7,184.6,192,180.9,187.5,180.9z"/>
</g>
<g>
	<path class="st0" d="M98.7,204.5c-8.5,0-15.4-6.9-15.4-15.4s6.9-15.4,15.4-15.4s15.4,6.9,15.4,15.4S107.2,204.5,98.7,204.5z
		 M98.7,180.9c-4.5,0-8.2,3.7-8.2,8.2c0,4.5,3.7,8.2,8.2,8.2s8.2-3.7,8.2-8.2C106.9,184.6,103.2,180.9,98.7,180.9z"/>
</g>
<g>
	<path class="st0" d="M148.4,142.2c-1.1,0-2.1-0.5-2.7-1.3l-30.9-36.3c-0.9-1.1-1.1-2.6-0.5-3.9c0.6-1.3,1.9-2.1,3.3-2.1h11.2V49.1
		c0-2,1.6-3.6,3.6-3.6h32.2c2,0,3.6,1.6,3.6,3.6v49.6h11.2c1.4,0,2.7,0.8,3.3,2.1c0.6,1.3,0.4,2.8-0.5,3.9l-30.9,36.3
		C150.5,141.8,149.5,142.2,148.4,142.2z M125.4,106l23.1,27.1l23.1-27.1h-7c-2,0-3.6-1.6-3.6-3.6V52.7h-25v49.6c0,2-1.6,3.6-3.6,3.6
		H125.4z"/>
</g>
</svg>
