<?xml version="1.0" encoding="utf-8"?>
<!-- Generator: Adobe Illustrator 22.0.1, SVG Export Plug-In . SVG Version: 6.00 Build 0)  -->
<svg version="1.1" id="Layer_1" xmlns="http://www.w3.org/2000/svg" xmlns:xlink="http://www.w3.org/1999/xlink" x="0px" y="0px"
	 viewBox="0 0 250 250" style="enable-background:new 0 0 250 250;" xml:space="preserve">
<style type="text/css">
	.st0{fill:#FFFFFF;}
</style>
<g>
	<path class="st0" d="M183.2,29.4H66.8c-7.5,0-13.5,6-13.5,13.5v116.3c0,7.5,6.1,13.5,13.5,13.5h116.3c7.5,0,13.5-6.1,13.5-13.5
		V42.9C196.7,35.5,190.6,29.4,183.2,29.4z M84.2,156c-4.1,0-7.4-3.3-7.4-7.4c0-4.1,3.3-7.4,7.4-7.4c4.1,0,7.4,3.3,7.4,7.4
		C91.5,152.7,88.2,156,84.2,156z M165.8,156c-4.1,0-7.4-3.3-7.4-7.4c0-4.1,3.3-7.4,7.4-7.4c4.1,0,7.4,3.3,7.4,7.4
		C173.2,152.7,169.9,156,165.8,156z M186.1,118.4c0,9-7.3,16.4-16.4,16.4H80.2c-9,0-16.4-7.3-16.4-16.4V58.8c0-9,7.3-16.4,16.4-16.4
		h89.6c9,0,16.4,7.3,16.4,16.4V118.4z"/>
	<path class="st0" d="M186.2,219.3l-9.5-29.3c-2.4-7-5.2-11.5-11.6-11.5H81.7c-6.4,0-9.2,4.5-11.6,11.5l-6.4,29.3H186.2z"/>
</g>
</svg>
