<?xml version="1.0" encoding="utf-8"?>
<!-- Generator: Adobe Illustrator 23.1.1, SVG Export Plug-In . SVG Version: 6.00 Build 0)  -->
<svg version="1.1" id="Layer_1" xmlns="http://www.w3.org/2000/svg" xmlns:xlink="http://www.w3.org/1999/xlink" x="0px" y="0px"
	 viewBox="0 0 250 250" style="enable-background:new 0 0 250 250;" xml:space="preserve">
<style type="text/css">
	.st0{fill:#9C182F;}
</style>
<g>
	<g>
		<path class="st0" d="M56.9,77.3L56.9,77.3l7.5,6.3v118.7c0,5.8,4.7,10.5,10.5,10.5h100.1c5.8,0,10.5-4.7,10.5-10.5V83.5l7.5-6.3h0
			V66.9H56.9V77.3z M148.8,93.7h12.7v102.1h-12.7V93.7z M118.6,93.7h12.7v102.1h-12.7V93.7z M88.5,93.7h12.7v102.1H88.5V93.7z"/>
		<path class="st0" d="M190.8,51.9h-44.3V41.5c0-2.4-1.9-4.3-4.3-4.3h-34.4c-2.4,0-4.3,1.9-4.3,4.3v10.4H59.2
			c-1.4,0-2.6,1.1-2.6,2.6v8.2h136.8v-8.2C193.4,53,192.3,51.9,190.8,51.9z M138.7,49.3h-27.4v-2.9c0-0.8,0.6-1.4,1.4-1.4h24.6
			c0.8,0,1.4,0.6,1.4,1.4V49.3z"/>
	</g>
</g>
</svg>
