<?xml version="1.0" encoding="utf-8"?>
<!-- Generator: Adobe Illustrator 22.0.1, SVG Export Plug-In . SVG Version: 6.00 Build 0)  -->
<svg version="1.1" id="Layer_1" xmlns="http://www.w3.org/2000/svg" xmlns:xlink="http://www.w3.org/1999/xlink" x="0px" y="0px"
	 viewBox="0 0 250 250" style="enable-background:new 0 0 250 250;" xml:space="preserve">
<style type="text/css">
	.st0{fill:#FFFFFF;}
</style>
<g>
	<path class="st0" d="M146,175.5H104c-10.4,0-18.7,8.4-18.7,18.7h79.4C164.7,183.9,156.3,175.5,146,175.5z"/>
	<rect x="112.8" y="157.4" class="st0" width="24.4" height="14.2"/>
	<path class="st0" d="M191.4,55.7H58.6c-1.9,0-3.5,1.6-3.5,3.5v90c0,1.9,1.6,3.5,3.5,3.5h132.8c1.9,0,3.5-1.6,3.5-3.5v-90
		C194.9,57.3,193.4,55.7,191.4,55.7z M181.4,135.7c0,1.9-1.6,3.5-3.6,3.5H72.3c-2,0-3.6-1.6-3.6-3.5V72.9c0-1.9,1.6-3.5,3.6-3.5
		h105.5c2,0,3.6,1.6,3.6,3.5V135.7z"/>
</g>
</svg>
