<?xml version="1.0" encoding="utf-8"?>
<!-- Generator: Adobe Illustrator 22.0.1, SVG Export Plug-In . SVG Version: 6.00 Build 0)  -->
<svg version="1.1" id="Layer_1" xmlns="http://www.w3.org/2000/svg" xmlns:xlink="http://www.w3.org/1999/xlink" x="0px" y="0px"
	 viewBox="0 0 250 250" style="enable-background:new 0 0 250 250;" xml:space="preserve">
<style type="text/css">
	.st0{fill:#fff;}
</style>
<g>
	<path class="st0" d="M193.3,71.4H56.7c-3.6,0-6.5-2.9-6.5-6.5c0-3.6,2.9-6.5,6.5-6.5h136.6c3.6,0,6.5,2.9,6.5,6.5
		C199.8,68.4,196.9,71.4,193.3,71.4z"/>
	<path class="st0" d="M155.4,131.5H56.7c-3.6,0-6.5-2.9-6.5-6.5c0-3.6,2.9-6.5,6.5-6.5h98.7c3.6,0,6.5,2.9,6.5,6.5
		C161.9,128.6,159,131.5,155.4,131.5z"/>
	<path class="st0" d="M193.3,191.7H56.7c-3.6,0-6.5-2.9-6.5-6.5c0-3.6,2.9-6.5,6.5-6.5h136.6c3.6,0,6.5,2.9,6.5,6.5
		C199.8,188.8,196.9,191.7,193.3,191.7z"/>
</g>
</svg>
