<?xml version="1.0" encoding="utf-8"?>
<!-- Generator: Adobe Illustrator 23.1.1, SVG Export Plug-In . SVG Version: 6.00 Build 0)  -->
<svg version="1.1" id="Layer_1" xmlns="http://www.w3.org/2000/svg" xmlns:xlink="http://www.w3.org/1999/xlink" x="0px" y="0px"
	 viewBox="0 0 250 250" style="enable-background:new 0 0 250 250;" xml:space="preserve">
<style type="text/css">
	.st0{fill:#4D4D4D;}
</style>
<g>
	<g>
		<rect x="121.3" y="169.2" class="st0" width="7.4" height="36.8"/>
		<rect x="121.3" y="44" class="st0" width="7.4" height="81"/>
		<rect x="172.8" y="44" class="st0" width="7.4" height="36.8"/>
		<rect x="172.8" y="125" class="st0" width="7.4" height="81"/>
		<rect x="69.8" y="147.1" class="st0" width="7.4" height="58.9"/>
		<rect x="69.8" y="44" class="st0" width="7.4" height="58.9"/>
		<path class="st0" d="M124.4,132.4c-8.1,0-14.7,6.6-14.7,14.7c0,8.1,6.6,14.7,14.7,14.7c8.1,0,14.7-6.6,14.7-14.7
			C139.1,138.9,132.5,132.4,124.4,132.4z"/>
		<path class="st0" d="M176.5,88.2c-8.1,0-14.7,6.6-14.7,14.7s6.6,14.7,14.7,14.7c8.1,0,14.7-6.6,14.7-14.7S184.7,88.2,176.5,88.2z"
			/>
		<path class="st0" d="M73.5,110.3c-8.1,0-14.7,6.6-14.7,14.7c0,8.1,6.6,14.7,14.7,14.7c8.1,0,14.7-6.6,14.7-14.7
			C88.2,116.9,81.6,110.3,73.5,110.3z"/>
	</g>
</g>
</svg>
