<?xml version="1.0" encoding="utf-8"?>
<!-- Generator: Adobe Illustrator 22.0.1, SVG Export Plug-In . SVG Version: 6.00 Build 0)  -->
<svg version="1.1" id="Layer_1" xmlns="http://www.w3.org/2000/svg" xmlns:xlink="http://www.w3.org/1999/xlink" x="0px" y="0px"
	 viewBox="0 0 250 250" style="enable-background:new 0 0 250 250;" xml:space="preserve">
<style type="text/css">
	.st0{fill:#fff;}
	.st1{fill:#fff;}
</style>
<g>
	<g>
		<g>
			<path class="st0" d="M74.5,176.2c-0.7,0-1.4-0.3-1.9-0.8c-0.8-0.8-1-2.1-0.5-3.1L90.4,137c0.1-0.2,0.3-0.5,0.5-0.7L194.7,32.5
				c1-1,2.8-1,3.7,0l17.1,17.1c1,1,1,2.7,0,3.7L111.7,157.2c-0.2,0.2-0.4,0.4-0.7,0.5l-35.3,18.2C75.3,176.1,74.9,176.2,74.5,176.2z
				 M94.9,139.8l-14.2,27.6l27.6-14.2L210,51.5l-13.4-13.4L94.9,139.8z M109.8,155.4L109.8,155.4L109.8,155.4z"/>
		</g>
		<g>
			<path class="st0" d="M196.3,71c-0.7,0-1.4-0.3-1.9-0.8l-16.9-16.9c-1-1-1-2.7,0-3.7c1-1,2.7-1,3.7,0l16.9,16.9c1,1,1,2.7,0,3.7
				C197.7,70.7,197,71,196.3,71z"/>
		</g>
		<g>
			<path class="st0" d="M189.4,77.9c-0.7,0-1.4-0.3-1.9-0.8l-16.9-16.9c-1-1-1-2.7,0-3.7c1-1,2.7-1,3.7,0l16.9,16.9c1,1,1,2.7,0,3.7
				C190.7,77.7,190,77.9,189.4,77.9z"/>
		</g>
		<g>
			<path class="st0" d="M109.8,158c-1.1,0-2.1-0.7-2.5-1.7l-4.1-11.4l-11.4-4.1c-1.4-0.5-2.1-2-1.6-3.4c0.5-1.4,2-2.1,3.4-1.6
				l12.6,4.6c0.7,0.3,1.3,0.8,1.6,1.6l4.6,12.6c0.5,1.4-0.2,2.9-1.6,3.4C110.4,157.9,110.1,158,109.8,158z"/>
		</g>
		<g>
			<path class="st0" d="M105.3,145.4c-0.7,0-1.4-0.3-1.9-0.8c-1-1-1-2.7,0-3.7l75.5-75.5c1-1,2.7-1,3.7,0c1,1,1,2.7,0,3.7
				l-75.5,75.5C106.6,145.2,106,145.4,105.3,145.4z"/>
		</g>
		<g>
			<path class="st0" d="M84,169.9c-0.7,0-1.4-0.3-1.9-0.8l-3.2-3.2c-1-1-1-2.7,0-3.7c1-1,2.7-1,3.7,0l3.2,3.2c1,1,1,2.7,0,3.7
				C85.4,169.7,84.7,169.9,84,169.9z"/>
		</g>
	</g>
	<g>
		<path class="st1" d="M182.8,218.3H50.3c-9.2,0-16.6-7.5-16.6-16.6V69.1c0-9.2,7.5-16.6,16.6-16.6h108c1.5,0,2.6,1.2,2.6,2.6
			c0,1.5-1.2,2.6-2.6,2.6h-108c-6.3,0-11.4,5.1-11.4,11.4v132.5c0,6.3,5.1,11.4,11.4,11.4h132.5c6.3,0,11.4-5.1,11.4-11.4V83.9
			c0-1.5,1.2-2.6,2.6-2.6c1.5,0,2.6,1.2,2.6,2.6v117.7C199.5,210.8,192,218.3,182.8,218.3z"/>
	</g>
	<g>
		<path class="st1" d="M176.4,202.4H56.7c-4,0-7.2-3.2-7.2-7.2V75.5c0-4,3.2-7.2,7.2-7.2h85.6c1.5,0,2.6,1.2,2.6,2.6
			c0,1.5-1.2,2.6-2.6,2.6H56.7c-1,0-1.9,0.9-1.9,1.9v119.6c0,1,0.9,1.9,1.9,1.9h119.6c1,0,1.9-0.9,1.9-1.9V98.7
			c0-1.5,1.2-2.6,2.6-2.6c1.5,0,2.6,1.2,2.6,2.6v96.5C183.6,199.1,180.3,202.4,176.4,202.4z"/>
	</g>
</g>
</svg>
