<?xml version="1.0" encoding="utf-8"?>
<!-- Generator: Adobe Illustrator 22.0.1, SVG Export Plug-In . SVG Version: 6.00 Build 0)  -->
<svg version="1.1" id="Layer_1" xmlns="http://www.w3.org/2000/svg" xmlns:xlink="http://www.w3.org/1999/xlink" x="0px" y="0px"
	 viewBox="0 0 250 250" style="enable-background:new 0 0 250 250;" xml:space="preserve">
<style type="text/css">
	.st0{fill:#fff;}
	.st1{fill:#fff;}
</style>
<g>
	<g>
		<path class="st0" d="M206.9,227.6H43.1c-1.5,0-2.8-1.2-2.8-2.8v-22.6c0-1.5,1.2-2.8,2.8-2.8h163.9c1.5,0,2.8,1.2,2.8,2.8v22.6
			C209.7,226.4,208.5,227.6,206.9,227.6z M45.8,222.1h158.4V205H45.8V222.1z"/>
	</g>
	<g>
		<g>
			<path class="st1" d="M89,193.7H65c-1.5,0-2.8-1.2-2.8-2.8v-87.9c0-1.5,1.2-2.8,2.8-2.8h24c1.5,0,2.8,1.2,2.8,2.8V191
				C91.8,192.5,90.5,193.7,89,193.7z M67.8,188.2h18.5v-82.4H67.8V188.2z"/>
		</g>
		<g>
			<path class="st1" d="M137,193.7h-24c-1.5,0-2.8-1.2-2.8-2.8v-87.9c0-1.5,1.2-2.8,2.8-2.8h24c1.5,0,2.8,1.2,2.8,2.8V191
				C139.7,192.5,138.5,193.7,137,193.7z M115.8,188.2h18.5v-82.4h-18.5V188.2z"/>
		</g>
		<g>
			<path class="st1" d="M185,193.7h-24c-1.5,0-2.8-1.2-2.8-2.8v-87.9c0-1.5,1.2-2.8,2.8-2.8h24c1.5,0,2.8,1.2,2.8,2.8V191
				C187.7,192.5,186.5,193.7,185,193.7z M163.7,188.2h18.5v-82.4h-18.5V188.2z"/>
		</g>
	</g>
	<g>
		<path class="st0" d="M216.3,93.5H33.7c-1.5,0-2.8-1.2-2.8-2.8V76.2c0-1,0.5-1.9,1.4-2.4l91.3-51.1c0.8-0.5,1.9-0.5,2.7,0
			l91.3,51.1c0.9,0.5,1.4,1.4,1.4,2.4v14.5C219.1,92.3,217.8,93.5,216.3,93.5z M36.5,88h177.1V77.9L125,28.3L36.5,77.9V88z"/>
	</g>
	<g>
		<path class="st0" d="M203.9,83.5H46.1c-1.3,0-2.4-0.8-2.7-2.1c-0.3-1.2,0.2-2.5,1.3-3.1l78.9-44.2c0.8-0.5,1.9-0.5,2.7,0
			l78.9,44.2c1.1,0.6,1.6,1.9,1.3,3.1C206.2,82.7,205.1,83.5,203.9,83.5z M56.7,78h136.6L125,39.7L56.7,78z"/>
	</g>
</g>
</svg>
