<?xml version="1.0" encoding="utf-8"?>
<!-- Generator: Adobe Illustrator 22.0.1, SVG Export Plug-In . SVG Version: 6.00 Build 0)  -->
<svg version="1.1" id="Layer_1" xmlns="http://www.w3.org/2000/svg" xmlns:xlink="http://www.w3.org/1999/xlink" x="0px" y="0px"
	 viewBox="0 0 250 250" style="enable-background:new 0 0 250 250;" xml:space="preserve">
<style type="text/css">
	.st0{fill:#FFFFFF;}
</style>
<g>
	<path class="st0" d="M146.8,104.5c0-10.6-8.6-19.2-19.2-19.2c-10.6,0-19.2,8.6-19.2,19.2c0,10.6,8.6,19.2,19.2,19.2
		C138.2,123.7,146.8,115.1,146.8,104.5z"/>
	<path class="st0" d="M144.9,197.2c-4.4,4.7-8.2,8.4-10.9,10.9c-1.8,1.7-4.1,2.6-6.4,2.6c-1.7,0-4.3-0.5-6.8-2.9
		c-2.6-2.4-6.3-6.1-10.6-10.6c-9.2,1.9-15.3,5.3-15.3,9.2c0,6,14.6,10.9,32.6,10.9c18,0,32.6-4.9,32.6-10.9
		C160.2,202.6,154.1,199.2,144.9,197.2z"/>
	<path class="st0" d="M116.9,196.2C116.9,196.2,116.9,196.2,116.9,196.2c0.4,0.4,0.8,0.8,1.1,1.1c0.1,0.1,0.1,0.1,0.2,0.2
		c0.3,0.3,0.6,0.6,0.9,0.9c0.1,0.1,0.2,0.2,0.3,0.3c0.3,0.3,0.5,0.5,0.8,0.8c0.1,0.1,0.1,0.1,0.2,0.2c0.6,0.6,1.2,1.2,1.8,1.8
		c0.1,0.1,0.2,0.1,0.2,0.2c0.2,0.2,0.4,0.4,0.6,0.6c0.1,0.1,0.2,0.2,0.3,0.3c0.2,0.2,0.3,0.3,0.5,0.5c0.1,0.1,0.2,0.2,0.2,0.2
		c0.2,0.2,0.5,0.4,0.7,0.6c0.2,0.2,0.5,0.4,0.7,0.6c0.1,0.1,0.2,0.1,0.2,0.1c0.2,0.1,0.3,0.2,0.5,0.3c0.1,0,0.2,0.1,0.3,0.1
		c0.1,0.1,0.3,0.1,0.4,0.1c0.1,0,0.2,0,0.3,0c0.1,0,0.3,0,0.4,0c0,0,0,0,0.1,0c0.1,0,0.2,0,0.3,0c0.1,0,0.2,0,0.3,0
		c0.1,0,0.3-0.1,0.4-0.1c0.1,0,0.2,0,0.3-0.1c0.1-0.1,0.3-0.2,0.4-0.2c0.1,0,0.1-0.1,0.2-0.1c0.2-0.1,0.4-0.3,0.6-0.5
		c0.2-0.2,0.4-0.4,0.7-0.7c0.1,0,0.1-0.1,0.2-0.1c0.2-0.2,0.4-0.4,0.7-0.6c0,0,0.1-0.1,0.1-0.1c0.8-0.8,1.8-1.7,2.8-2.8c0,0,0,0,0,0
		c1-1,2.2-2.2,3.4-3.4c0,0,0.1-0.1,0.1-0.1c0,0,0,0,0,0c17-17.6,48.6-54.9,48.6-90.3c0-33.9-27.8-61.3-59.2-61.3S68.4,72,68.4,105.8
		C68.4,141.3,99.9,178.6,116.9,196.2L116.9,196.2z M95.7,104.5c0-17.6,14.3-31.9,31.9-31.9c17.6,0,31.9,14.3,31.9,31.9
		c0,17.6-14.3,31.9-31.9,31.9C110,136.4,95.7,122.1,95.7,104.5z"/>
</g>
</svg>
