<?xml version="1.0" encoding="utf-8"?>
<!-- Generator: Adobe Illustrator 22.0.1, SVG Export Plug-In . SVG Version: 6.00 Build 0)  -->
<svg version="1.1" id="Layer_1" xmlns="http://www.w3.org/2000/svg" xmlns:xlink="http://www.w3.org/1999/xlink" x="0px" y="0px"
	 viewBox="0 0 250 250" style="enable-background:new 0 0 250 250;" xml:space="preserve">
<style type="text/css">
	.st0{fill-rule:evenodd;clip-rule:evenodd;fill:#FFFFFF;}
</style>
<g>
	<path class="st0" d="M219.4,188c0,2.7-2.4,5.2-5.2,5.2H35.7c-2.8,0-5.2-2.5-5.2-5.2V87.9c0-2.9,2.4-5.2,5.2-5.2h49.8
		c0,7.1,5.8,13,12.9,13h53c7.3,0,13-5.9,13-13l0,0h49.8c2.8,0,5.2,2.3,5.2,5.2V188z M132.9,61.8C132.9,88.4,132.9,35,132.9,61.8
		L132.9,61.8z M214.3,67.1h-49.5v-0.5c0-7.3-5.7-13-12.8-13h-9.3c-0.3-7.1-6-12.4-13-12.4h-9.2c-7,0-12.7,5.3-13,12.4h-9.3
		c-7.1,0-12.9,5.7-12.9,13v0.5H35.7C24.2,67.1,15,76.3,15,87.9V188c0,11.6,9.2,20.8,20.7,20.8h178.5c11.5,0,20.7-9.2,20.7-20.8V87.9
		C235,76.3,225.8,67.1,214.3,67.1L214.3,67.1z M183.4,122.6H130c-2.1,0-3.8,1.4-3.8,3.1c0.1,1.6,1.7,3,3.8,3h53.4c2.1,0,4-1.4,4-3
		C187.3,124,185.5,122.6,183.4,122.6L183.4,122.6z M183.4,137.9H130c-2.1,0-3.8,1.2-3.8,3c0.1,1.6,1.7,3.1,3.8,3.1h53.4
		c2.1,0,4-1.5,4-3.1C187.3,139.1,185.5,137.9,183.4,137.9L183.4,137.9z M80.7,141.9v3.6c14.1,8.3,21.4,4.1,21.4,22.6H73.5h-0.3H43.9
		c0-19.3,7.3-14.3,21.4-22.6v-3.3c-2.5-1.6-3.1-4.8-3.9-8.2l0,0c-0.4,0-0.7-0.6-0.7-1.4v-0.2c-0.2-0.5-0.4-1-0.6-1.7
		c-0.2-1-1.3-3.1-0.4-4.1c0.7-0.5,1.3,0.1,1.3,0.1c-1.1-5.4-2.4-12.5,5-14.7c0-4.6,17.6-2.6,19.8,4.9c1,2.8-0.3,9.7-0.3,9.7
		c0.1-0.4,0.5-0.5,1-0.2c1,0.6-0.1,3.3-0.5,4.3c-0.1,0.9-0.4,1.4-0.6,1.9l0,0c0,0.8-0.3,1.4-0.6,1.4C83.8,136.9,83,140.1,80.7,141.9
		L80.7,141.9z"/>
</g>
</svg>
