<?xml version="1.0" encoding="utf-8"?>
<!-- Generator: Adobe Illustrator 22.0.1, SVG Export Plug-In . SVG Version: 6.00 Build 0)  -->
<svg version="1.1" id="Layer_1" xmlns="http://www.w3.org/2000/svg" xmlns:xlink="http://www.w3.org/1999/xlink" x="0px" y="0px"
	 viewBox="0 0 250 250" style="enable-background:new 0 0 250 250;" xml:space="preserve">
<style type="text/css">
	.st0{fill:#fff;}
	.st1{fill:#fff;}
</style>
<g>
	<g>
		<path class="st0" d="M183.3,87.3h-44.7c-1.3,0-2.4-1.1-2.4-2.4V41.2c0-1,0.6-1.9,1.5-2.3c0.9-0.4,1.9-0.2,2.7,0.5L185,83.1
			c0.7,0.7,0.9,1.8,0.6,2.7S184.3,87.3,183.3,87.3z M141.1,82.4h36.2L141.1,47V82.4z"/>
	</g>
	<g>
		<path class="st0" d="M179.1,211.3H61.7c-3.6,0-6.6-2.9-6.6-6.5V45.3c0-3.6,3-6.5,6.6-6.5h76.9c0.6,0,1.3,0.3,1.7,0.7L185,83.1
			c0.5,0.5,0.7,1.1,0.7,1.7v19c0,1.3-1.1,2.4-2.4,2.4s-2.4-1.1-2.4-2.4v-18l-43.2-42.3H61.7c-0.9,0-1.7,0.7-1.7,1.6v159.5
			c0,0.9,0.8,1.6,1.7,1.6h117.4c0.9,0,1.7-0.7,1.7-1.6V186c0-1.3,1.1-2.4,2.4-2.4s2.4,1.1,2.4,2.4v18.7
			C185.7,208.3,182.8,211.3,179.1,211.3z"/>
	</g>
	<g>
		<g>
			<path class="st0" d="M140.1,183H75.4c-1.3,0-2.4-1.1-2.4-2.4s1.1-2.4,2.4-2.4h64.7c1.3,0,2.4,1.1,2.4,2.4S141.4,183,140.1,183z"
				/>
		</g>
		<g>
			<path class="st0" d="M125,164.5H75.4c-1.3,0-2.4-1.1-2.4-2.4c0-1.3,1.1-2.4,2.4-2.4H125c1.3,0,2.4,1.1,2.4,2.4
				C127.5,163.4,126.4,164.5,125,164.5z"/>
		</g>
		<g>
			<path class="st0" d="M122.2,146H75.4c-1.3,0-2.4-1.1-2.4-2.4c0-1.3,1.1-2.4,2.4-2.4h46.8c1.3,0,2.4,1.1,2.4,2.4
				C124.7,144.9,123.6,146,122.2,146z"/>
		</g>
		<g>
			<path class="st0" d="M126.9,127.4H75.4c-1.3,0-2.4-1.1-2.4-2.4s1.1-2.4,2.4-2.4h51.5c1.3,0,2.4,1.1,2.4,2.4
				S128.3,127.4,126.9,127.4z"/>
		</g>
		<g>
			<path class="st0" d="M144.4,108.9h-69c-1.3,0-2.4-1.1-2.4-2.4c0-1.3,1.1-2.4,2.4-2.4h69c1.3,0,2.4,1.1,2.4,2.4
				C146.9,107.8,145.8,108.9,144.4,108.9z"/>
		</g>
		<g>
			<path class="st0" d="M128.2,90.4H75.4c-1.3,0-2.4-1.1-2.4-2.4c0-1.3,1.1-2.4,2.4-2.4h52.8c1.3,0,2.4,1.1,2.4,2.4
				C130.6,89.3,129.5,90.4,128.2,90.4z"/>
		</g>
		<g>
			<path class="st0" d="M126.1,71.9H75.4c-1.3,0-2.4-1.1-2.4-2.4c0-1.3,1.1-2.4,2.4-2.4h50.7c1.3,0,2.4,1.1,2.4,2.4
				C128.5,70.8,127.4,71.9,126.1,71.9z"/>
		</g>
	</g>
	<g>
		<path class="st0" d="M166.6,191.7c-25.8,0-46.8-21-46.8-46.8s21-46.8,46.8-46.8s46.8,21,46.8,46.8S192.4,191.7,166.6,191.7z
			 M166.6,103c-23.1,0-41.9,18.8-41.9,41.9s18.8,41.9,41.9,41.9s41.9-18.8,41.9-41.9S189.7,103,166.6,103z"/>
	</g>
	<g>
		<path class="st1" d="M162.3,176.6L162.3,176.6c-0.7,0-1.4-0.3-1.8-0.8l-25.3-28.9c-0.8-0.9-0.8-2.3,0-3.2l10.3-11.8
			c0.5-0.5,1.1-0.8,1.8-0.8l0,0c0.7,0,1.4,0.3,1.8,0.8l13.1,15l24.5-28c0.5-0.5,1.1-0.8,1.8-0.8l0,0c0.7,0,1.4,0.3,1.8,0.8
			l10.3,11.8c0.8,0.9,0.8,2.3,0,3.2l-36.7,41.9C163.6,176.3,163,176.6,162.3,176.6z M140.2,145.3l22,25.2l33.4-38.2l-7.1-8.1
			l-24.5,28c-0.5,0.5-1.1,0.8-1.8,0.8l0,0c-0.7,0-1.4-0.3-1.8-0.8l-13.1-15L140.2,145.3z"/>
	</g>
</g>
</svg>
