<?xml version="1.0" encoding="utf-8"?>
<!-- Generator: Adobe Illustrator 23.1.1, SVG Export Plug-In . SVG Version: 6.00 Build 0)  -->
<svg version="1.1" id="Layer_1" xmlns="http://www.w3.org/2000/svg" xmlns:xlink="http://www.w3.org/1999/xlink" x="0px" y="0px"
	 viewBox="0 0 250 250" style="enable-background:new 0 0 250 250;" xml:space="preserve">
<style type="text/css">
	.st0{fill:#4D4D4D;}
</style>
<g>
	<g>
		<path class="st0" d="M109.1,166.7h-8.7c-1,0-1.8-0.3-2.4-0.8c-0.6-0.5-1.1-1.1-1.4-1.9l-7.8-20.1H51.3L43.6,164
			c-0.2,0.7-0.7,1.3-1.3,1.9c-0.7,0.5-1.5,0.8-2.4,0.8H31l33.3-83.4h11.4L109.1,166.7z M54.5,135.7h31.1l-13.1-33.9
			c-0.4-1-0.8-2.2-1.2-3.5c-0.4-1.3-0.8-2.7-1.3-4.2c-0.4,1.5-0.8,2.9-1.2,4.3c-0.4,1.3-0.8,2.5-1.3,3.5L54.5,135.7z"/>
		<path class="st0" d="M116.7,127.4h28.7v8.8h-28.7V127.4z"/>
		<path class="st0" d="M219,83.3v4.2c0,1.3-0.4,2.5-1.2,3.7l-47.2,66.3h47.7v9.2h-62.5v-4.4c0-0.6,0.1-1.2,0.3-1.7
			c0.2-0.5,0.5-1.1,0.8-1.6l47.2-66.4H158v-9.2H219z"/>
	</g>
</g>
</svg>
