<?xml version="1.0" encoding="utf-8"?>
<!-- Generator: Adobe Illustrator 22.0.1, SVG Export Plug-In . SVG Version: 6.00 Build 0)  -->
<svg version="1.1" id="Layer_1" xmlns="http://www.w3.org/2000/svg" xmlns:xlink="http://www.w3.org/1999/xlink" x="0px" y="0px"
	 viewBox="0 0 250 250" style="enable-background:new 0 0 250 250;" xml:space="preserve">
<style type="text/css">
	.st0{fill:#B3B3B3;}
</style>
<path id="XMLID_5091_" class="st0" d="M125,45.7c-6,0-12.6,4.8-12.6,11.2v16.8c-30.3,5.9-53.3,32.7-53.3,64.7
	c0,36.4,29.6,65.9,65.9,65.9c36.4,0,65.9-29.6,65.9-65.9c0-32-23-58.8-53.3-64.7V56.8C137.6,50.4,131,45.7,125,45.7z M119.8,56.8
	c0-1.7,2.8-3.7,5.2-3.7c2.4,0,5.2,2,5.2,3.7v65.7c0,1.7-2.8,3.7-5.2,3.7c-2.4,0-5.2-2-5.2-3.7V56.8z M125,133.7
	c6,0,12.6-4.8,12.6-11.2V102c15.1,5.2,25.9,19.6,25.9,36.4c0,21.2-17.3,38.5-38.5,38.5c-21.2,0-38.5-17.3-38.5-38.5
	c0-16.8,10.8-31.1,25.9-36.4v20.5C112.4,128.9,119,133.7,125,133.7z M183.5,138.4c0,32.3-26.2,58.5-58.5,58.5
	c-32.3,0-58.5-26.2-58.5-58.5c0-27.9,19.7-51.3,45.9-57.1v12.9C93.1,99.7,79,117.4,79,138.4c0,25.3,20.6,46,46,46
	c25.3,0,46-20.6,46-46c0-21-14.1-38.7-33.3-44.2V81.3C163.8,87.1,183.5,110.5,183.5,138.4z"/>
</svg>
