<?xml version="1.0" encoding="utf-8"?>
<!-- Generator: Adobe Illustrator 22.0.1, SVG Export Plug-In . SVG Version: 6.00 Build 0)  -->
<svg version="1.1" id="Layer_1" xmlns="http://www.w3.org/2000/svg" xmlns:xlink="http://www.w3.org/1999/xlink" x="0px" y="0px"
	 viewBox="0 0 250 250" style="enable-background:new 0 0 250 250;" xml:space="preserve">
<style type="text/css">
	.st0{fill:#010101;}
	.st1{fill:#FFFFFF;}
	.st2{fill:#F26122;}
	.st3{fill:#E81E25;}
	.st4{fill:#F49E1E;}
</style>
<g id="Page-1_3_">
	<g id="mastercard_1_">
		<path id="Rectangle-1_2_" class="st0" d="M54.3,75.3h141.4c4.7,0,8.4,3.8,8.4,8.4v82.5c0,4.7-3.8,8.4-8.4,8.4H54.3
			c-4.7,0-8.4-3.8-8.4-8.4V83.7C45.8,79.1,49.6,75.3,54.3,75.3z"/>
		<g id="Group_2_" transform="translate(133.000000, 48.000000)">
			<path id="Shape_4_" class="st1" d="M-40.5,116.3V111c0-2-1.2-3.3-3.2-3.3c-1.1,0-2.2,0.4-3,1.5c-0.6-1-1.5-1.5-2.8-1.5
				c-1,0-1.9,0.4-2.5,1.2v-1.1h-1.7v8.4h1.7v-4.8c0-1.5,0.9-2.2,2.1-2.2s1.9,0.8,1.9,2.2v4.8h1.7v-4.8c0-1.5,0.9-2.2,2.1-2.2
				s1.9,0.8,1.9,2.2v4.8H-40.5z M-13.2,108h-3.1v-2.5h-1.7v2.5h-1.7v1.5h1.7v3.9c0,1.9,0.7,3.1,2.8,3.1c0.8,0,1.6-0.2,2.3-0.6
				l-0.5-1.5c-0.5,0.3-1,0.4-1.6,0.4c-0.9,0-1.3-0.5-1.3-1.4v-4h3.1L-13.2,108L-13.2,108z M2.4,107.7c-0.9,0-1.8,0.4-2.3,1.2v-1.1
				h-1.7v8.4h1.7v-4.7c0-1.4,0.7-2.3,1.8-2.3c0.4,0,0.8,0.1,1.1,0.2l0.5-1.6C3.2,107.8,2.8,107.7,2.4,107.7z M-21.2,108.6
				c-0.9-0.6-2.1-0.9-3.4-0.9c-2.1,0-3.4,1-3.4,2.6c0,1.4,1,2.2,2.8,2.4l0.9,0.1c1,0.2,1.6,0.5,1.6,1c0,0.6-0.7,1.1-2,1.1
				c-1,0-2-0.3-2.8-0.9l-0.9,1.3c1.2,0.9,2.7,1.1,3.6,1.1c2.4,0,3.8-1.1,3.8-2.7c0-1.5-1.1-2.2-2.9-2.4l-0.9-0.1
				c-0.8-0.1-1.5-0.4-1.5-0.9c0-0.6,0.7-1.1,1.7-1.1c1.1,0,2.1,0.4,2.6,0.7L-21.2,108.6z M4.2,112.1c0,2.5,1.7,4.4,4.4,4.4
				c1.2,0,2.1-0.3,3-1l-0.9-1.3c-0.6,0.5-1.4,0.8-2.2,0.8c-1.5,0-2.6-1.1-2.6-2.8c0-1.7,1.1-2.8,2.6-2.8c0.8,0,1.6,0.3,2.2,0.8
				l0.9-1.3c-0.9-0.7-1.7-1-3-1C5.9,107.7,4.2,109.6,4.2,112.1L4.2,112.1z M-7.5,107.7c-2.4,0-4.1,1.7-4.1,4.4
				c0,2.6,1.7,4.4,4.3,4.4c1.2,0,2.4-0.4,3.4-1.1l-0.9-1.2c-0.7,0.5-1.6,0.9-2.4,0.9c-1.1,0-2.4-0.7-2.5-2.2h6.2v-0.7
				C-3.6,109.5-5.2,107.7-7.5,107.7L-7.5,107.7z M-7.6,109.3c1.2,0,2.1,0.8,2.2,2.1H-10C-9.7,110.2-8.9,109.3-7.6,109.3z
				 M-30.2,112.1v-4.2h-1.7v1.1c-0.6-0.8-1.5-1.2-2.7-1.2c-2.4,0-4.1,1.8-4.1,4.4c0,2.5,1.7,4.4,4.1,4.4c1.2,0,2.1-0.4,2.7-1.2v1.1
				h1.7V112.1z M-37,112.1c0-1.6,1-2.8,2.6-2.8c1.6,0,2.5,1.2,2.5,2.8c0,1.7-1.1,2.8-2.5,2.8C-36,115-37,113.7-37,112.1z
				 M27.6,107.7c-0.9,0-1.8,0.4-2.3,1.2v-1.1h-1.7v8.4h1.7v-4.7c0-1.4,0.7-2.3,1.8-2.3c0.4,0,0.8,0.1,1.1,0.2l0.5-1.6
				C28.4,107.8,28,107.7,27.6,107.7L27.6,107.7z M21.2,112.1v-4.2h-1.7v1.1c-0.6-0.8-1.5-1.2-2.7-1.2c-2.4,0-4.1,1.8-4.1,4.4
				c0,2.5,1.7,4.4,4.1,4.4c1.2,0,2.1-0.4,2.7-1.2v1.1h1.7V112.1z M14.4,112.1c0-1.6,1-2.8,2.6-2.8c1.6,0,2.5,1.2,2.5,2.8
				c0,1.7-1.1,2.8-2.5,2.8C15.4,115,14.4,113.7,14.4,112.1z M38,112.1v-7.5h-1.7v4.4c-0.6-0.8-1.5-1.2-2.7-1.2
				c-2.4,0-4.1,1.8-4.1,4.4c0,2.5,1.7,4.4,4.1,4.4c1.2,0,2.1-0.4,2.7-1.2v1.1H38V112.1z M31.3,112.1c0-1.6,1-2.8,2.6-2.8
				c1.6,0,2.5,1.2,2.5,2.8c0,1.7-1.1,2.8-2.5,2.8C32.3,115,31.3,113.7,31.3,112.1L31.3,112.1z"/>
			<g>
				<rect id="Rectangle-path_1_" x="-23.1" y="44.3" class="st2" width="30.3" height="49.5"/>
				<path class="st3" d="M-20,69c0-9.6,4.4-18.8,12-24.7c-12.9-10.1-31.4-8.7-42.6,3.4s-11.1,30.6,0,42.7s29.7,13.5,42.6,3.4
					C-15.6,87.8-20,78.6-20,69z"/>
				<path class="st4" d="M42.9,69c0,12-6.9,23-17.7,28.3s-23.7,3.9-33.2-3.6c7.6-6,12-15.1,12-24.7s-4.4-18.8-12-24.7
					c9.5-7.4,22.4-8.8,33.2-3.6S42.9,57,42.9,69z"/>
			</g>
		</g>
	</g>
</g>
</svg>
