<?xml version="1.0" encoding="utf-8"?>
<!-- Generator: Adobe Illustrator 22.0.1, SVG Export Plug-In . SVG Version: 6.00 Build 0)  -->
<svg version="1.1" id="Layer_1" xmlns="http://www.w3.org/2000/svg" xmlns:xlink="http://www.w3.org/1999/xlink" x="0px" y="0px"
	 viewBox="0 0 250 250" style="enable-background:new 0 0 250 250;" xml:space="preserve">
<style type="text/css">
	.st0{fill:#fff;}
	.st1{fill:#fff;}
</style>
<g>
	<g>
		<path class="st0" d="M83.5,71.8H62.9c-1.4,0-2.5-1.1-2.5-2.5s1.1-2.5,2.5-2.5h20.7c1.4,0,2.5,1.1,2.5,2.5S84.9,71.8,83.5,71.8z"/>
	</g>
	<g>
		<path class="st0" d="M118.1,71.8H97.4c-1.4,0-2.5-1.1-2.5-2.5s1.1-2.5,2.5-2.5h20.7c1.4,0,2.5,1.1,2.5,2.5S119.5,71.8,118.1,71.8z
			"/>
	</g>
	<g>
		<path class="st0" d="M152.6,71.8h-20.7c-1.4,0-2.5-1.1-2.5-2.5s1.1-2.5,2.5-2.5h20.7c1.4,0,2.5,1.1,2.5,2.5S154,71.8,152.6,71.8z"
			/>
	</g>
	<g>
		<path class="st0" d="M187.1,71.8h-20.7c-1.4,0-2.5-1.1-2.5-2.5s1.1-2.5,2.5-2.5h20.7c1.4,0,2.5,1.1,2.5,2.5S188.5,71.8,187.1,71.8
			z"/>
	</g>
	<g>
		<path class="st0" d="M203,204.7H47c-6.5,0-11.8-5.3-11.8-11.8V78.5c0-6.5,5.3-11.8,11.8-11.8h2c1.4,0,2.5,1.1,2.5,2.5
			s-1.1,2.5-2.5,2.5h-2c-3.7,0-6.7,3-6.7,6.7v114.4c0,3.7,3,6.7,6.7,6.7h156c3.7,0,6.7-3,6.7-6.7V78.5c0-3.7-3-6.7-6.7-6.7h-2
			c-1.4,0-2.5-1.1-2.5-2.5s1.1-2.5,2.5-2.5h2c6.5,0,11.8,5.3,11.8,11.8v114.4C214.8,199.4,209.5,204.7,203,204.7z"/>
	</g>
	<g>
		<g>
			<path class="st0" d="M62.9,90.3H49c-1.4,0-2.5-1.1-2.5-2.5V47.8c0-1.4,1.1-2.5,2.5-2.5h13.9c1.4,0,2.5,1.1,2.5,2.5v39.9
				C65.4,89.1,64.3,90.3,62.9,90.3z M51.6,85.2h8.8V50.4h-8.8V85.2z"/>
		</g>
		<g>
			<path class="st0" d="M97.4,90.3H83.5c-1.4,0-2.5-1.1-2.5-2.5V47.8c0-1.4,1.1-2.5,2.5-2.5h13.9c1.4,0,2.5,1.1,2.5,2.5v39.9
				C99.9,89.1,98.8,90.3,97.4,90.3z M86.1,85.2h8.8V50.4h-8.8V85.2z"/>
		</g>
		<g>
			<path class="st0" d="M131.9,90.3h-13.9c-1.4,0-2.5-1.1-2.5-2.5V47.8c0-1.4,1.1-2.5,2.5-2.5h13.9c1.4,0,2.5,1.1,2.5,2.5v39.9
				C134.5,89.1,133.3,90.3,131.9,90.3z M120.6,85.2h8.8V50.4h-8.8V85.2z"/>
		</g>
		<g>
			<path class="st0" d="M166.5,90.3h-13.9c-1.4,0-2.5-1.1-2.5-2.5V47.8c0-1.4,1.1-2.5,2.5-2.5h13.9c1.4,0,2.5,1.1,2.5,2.5v39.9
				C169,89.1,167.9,90.3,166.5,90.3z M155.1,85.2h8.8V50.4h-8.8V85.2z"/>
		</g>
		<g>
			<path class="st0" d="M201,90.3h-13.9c-1.4,0-2.5-1.1-2.5-2.5V47.8c0-1.4,1.1-2.5,2.5-2.5H201c1.4,0,2.5,1.1,2.5,2.5v39.9
				C203.5,89.1,202.4,90.3,201,90.3z M189.7,85.2h8.8V50.4h-8.8V85.2z"/>
		</g>
	</g>
	<g>
		<g>
			<path class="st1" d="M113.4,190.2H88c-1.4,0-2.5-1.1-2.5-2.5v-44.2l-3.7,4.6c-0.9,1.1-2.5,1.3-3.6,0.4L64,137.2
				c-0.5-0.4-0.9-1-0.9-1.7c-0.1-0.7,0.1-1.3,0.5-1.9L89,101.7c0.5-0.6,1.2-1,2-1h22.5c1.4,0,2.5,1.1,2.5,2.5v84.4
				C116,189.1,114.8,190.2,113.4,190.2z M90.6,185.2h20.3v-79.3H92.2l-23.1,28.9l10.3,8.2l6.6-8.3c0.7-0.8,1.8-1.2,2.8-0.8
				c1,0.4,1.7,1.3,1.7,2.4V185.2z"/>
		</g>
		<g>
			<path class="st1" d="M154.2,190.2c-18.1,0-32.8-20.1-32.8-44.7s14.7-44.7,32.8-44.7s32.8,20.1,32.8,44.7S172.3,190.2,154.2,190.2
				z M154.2,105.9c-15.3,0-27.7,17.8-27.7,39.6s12.4,39.6,27.7,39.6s27.7-17.8,27.7-39.6S169.5,105.9,154.2,105.9z"/>
		</g>
		<g>
			<path class="st1" d="M154.2,170c-7,0-8.9-15.4-8.9-24.5s1.9-24.5,8.9-24.5c7,0,8.9,15.4,8.9,24.5S161.2,170,154.2,170z
				 M154,126.1c-0.7,0.6-3.6,7.1-3.6,19.5c0,12.4,2.8,18.8,4,19.5c0.7-0.6,3.6-7.1,3.6-19.5C158,133.2,155.2,126.7,154,126.1z"/>
		</g>
	</g>
</g>
</svg>
