<?xml version="1.0" encoding="utf-8"?>
<!-- Generator: Adobe Illustrator 23.1.1, SVG Export Plug-In . SVG Version: 6.00 Build 0)  -->
<svg version="1.1" id="Layer_1" xmlns="http://www.w3.org/2000/svg" xmlns:xlink="http://www.w3.org/1999/xlink" x="0px" y="0px"
	 viewBox="0 0 250 250" style="enable-background:new 0 0 250 250;" xml:space="preserve">
<style type="text/css">
	.st0{fill:#4D4D4D;}
</style>
<g id="XMLID_46_">
	<g>
		<path id="XMLID_99_" class="st0" d="M183.9,76.6H66.1H35.7c-2.9,0-5.2,2.3-5.2,5.2v86.5c0,2.9,2.3,5.2,5.2,5.2h30.4h117.7h30.4
			c2.9,0,5.2-2.3,5.2-5.2V81.7c0-2.9-2.3-5.2-5.2-5.2H183.9z M214.3,168.3h-30.4H66.1H35.7V81.7h30.4h117.7h30.4V168.3z"/>
		<path id="XMLID_94_" class="st0" d="M157.7,90.7h-17.5c-0.7-0.4-1.5-0.8-2.2-1.2c-8.3-3.9-17.8-3.9-26.1,0
			c-0.8,0.4-1.5,0.8-2.2,1.2H92.3H66.1h-4.2c0,10.2-8.3,18.5-18.5,18.5v31.6c10.2,0,18.5,8.3,18.5,18.5h4.2h26.1h17.5
			c0.7,0.4,1.5,0.8,2.2,1.2c4.1,2,8.5,3,13,3c4.5,0,8.9-1,13-3c0.8-0.4,1.5-0.8,2.2-1.2h17.5h26.1h4.2c0-10.2,8.3-18.5,18.5-18.5
			v-31.6c-10.2,0-18.5-8.3-18.5-18.5h-4.2H157.7z M92.3,154.2H66.5c-2-8.9-9-16-18-18v-22.4c8.9-2,16-9,18-18h25.8H103
			c-7.3,7.2-11.8,17.7-11.8,29.2c0,11.4,4.4,22,11.8,29.2H92.3z M136.9,158.2c-7.6,3.6-16.2,3.6-23.8,0
			c-11.7-5.6-19.3-18.6-19.3-33.2c0-14.6,7.6-27.6,19.3-33.2c3.8-1.8,7.8-2.7,11.9-2.7c4.1,0,8.1,0.9,11.9,2.7
			c11.7,5.6,19.3,18.6,19.3,33.2C156.2,139.6,148.6,152.6,136.9,158.2z M201.5,113.8v22.4c-8.9,2-16,9-18,18h-25.8H147
			c7.3-7.2,11.8-17.7,11.8-29.2c0-11.4-4.4-22-11.8-29.2h10.7h25.8C185.5,104.8,192.5,111.8,201.5,113.8z"/>
		<path id="XMLID_91_" class="st0" d="M134.7,123.3c-1.7-1.4-3.7-2.5-6.5-3.7c-2.6-1.1-4.2-1.9-5.1-2.7c-0.4-0.4-0.6-0.6-0.7-0.8
			c-0.1-0.2-0.2-0.4-0.2-1c0-0.4,0.1-1,0.6-1.6c0.6-0.6,1.7-0.9,3.1-0.9c1.4,0,2.7,0.2,4,0.6c1,0.3,1.7,0.7,2.4,1.1l1.5,0.9
			c0.3,0.2,0.7,0.2,1.1,0.1c0.4-0.1,0.6-0.4,0.8-0.8l2.6-6.9c0.2-0.6,0-1.3-0.6-1.6l-1.1-0.6c-2-1.2-4.2-1.9-6.6-2.3v-4.9
			c0-0.7-0.6-1.3-1.3-1.3H122c-0.7,0-1.3,0.6-1.3,1.3v5.5c-2.4,0.7-4.5,2-6,3.7c-2.1,2.3-3.3,5.2-3.3,8.4c0,1.7,0.3,3.3,0.9,4.7
			c0.9,2,2.4,3.7,4.4,5.2c1.7,1.2,3.8,2.3,6.6,3.4c2.5,1,3.7,1.9,4.3,2.5c0.3,0.3,0.6,0.7,0.7,1c0.2,0.4,0.2,0.8,0.2,1.2
			c0,0.9-0.3,1.6-1,2.2c-0.8,0.7-2.1,1.1-3.5,1.1c0,0,0,0,0,0c-2.5,0-5.3-0.8-7.3-2.2l-1.6-1.1c-0.3-0.2-0.7-0.3-1.1-0.1
			c-0.4,0.1-0.7,0.4-0.8,0.8l-2.5,7c-0.2,0.5,0,1.2,0.5,1.5l0.9,0.7c1.3,1,3,1.7,5,2.3c1.1,0.3,2.2,0.5,3.2,0.7v5.2
			c0,0.7,0.6,1.3,1.3,1.3h6.9c0.7,0,1.3-0.6,1.3-1.3v-5.7c2.6-0.8,4.9-2.2,6.6-4.2l0,0c2-2.3,3.2-5.4,3.2-8.5c0-1.7-0.3-3.2-0.8-4.7
			C137.9,126.7,136.6,124.8,134.7,123.3z M134.3,140.2c-1.5,1.8-3.7,3-6.2,3.6c-0.6,0.1-1,0.7-1,1.3v5.4h-4.3v-5
			c0-0.7-0.5-1.2-1.2-1.3c-1.3-0.1-2.6-0.4-3.9-0.7c-1.7-0.5-3.1-1.2-4.3-1.9l-0.1-0.1l1.6-4.5l0.2,0.1c2.5,1.6,5.7,2.6,8.8,2.6
			c0,0,0,0,0,0c2.1,0,3.9-0.6,5.2-1.7c1.3-1.1,1.9-2.5,1.9-4.2c0-0.8-0.1-1.6-0.4-2.2c-0.3-0.7-0.7-1.3-1.3-1.9
			c-1.1-1.1-2.8-2.1-5.1-3c-2.6-1-4.5-2-6-3.1c-1.7-1.2-2.9-2.6-3.6-4.1c-0.5-1.1-0.7-2.3-0.7-3.7c0-2.5,0.9-4.9,2.6-6.7
			c1.4-1.5,3.4-2.6,5.8-3.2c0.6-0.1,1-0.7,1-1.3v-5.2h4.2v4.8c0,0.7,0.5,1.2,1.2,1.3c2.5,0.2,4.8,0.9,6.8,2.1l0.1,0.1l-1.7,4.4
			l-0.2-0.1c-0.8-0.4-1.7-0.9-2.9-1.3c-1.5-0.5-3.1-0.8-4.8-0.8c-2.1,0-3.8,0.6-4.9,1.7c-0.9,0.9-1.4,2.1-1.4,3.4
			c0,0.8,0.1,1.4,0.4,2.1c0.3,0.6,0.7,1.1,1.3,1.7c1.1,1,2.9,1.9,5.8,3.1c2.5,1,4.4,2.1,5.9,3.3c1.5,1.3,2.6,2.7,3.2,4.4
			c0.4,1.1,0.6,2.4,0.6,3.8C136.9,135.9,136,138.4,134.3,140.2z"/>
	</g>
</g>
</svg>
