<?xml version="1.0" encoding="utf-8"?>
<!-- Generator: Adobe Illustrator 23.1.1, SVG Export Plug-In . SVG Version: 6.00 Build 0)  -->
<svg version="1.1" id="Layer_1" xmlns="http://www.w3.org/2000/svg" xmlns:xlink="http://www.w3.org/1999/xlink" x="0px" y="0px"
	 viewBox="0 0 250 250" style="enable-background:new 0 0 250 250;" xml:space="preserve">
<style type="text/css">
	.st0{fill:#9C182F;}
</style>
<g>
	<path class="st0" d="M167.8,73v12.2v6.1h-6.1h-12.2h-6.1v-6.1V73h-36.7v12.2v6.1h-6.1H88.3h-6.1v-6.1V73H51.6v122.3h146.8V73H167.8
		z M192.3,189.2H57.7V79.1h18.3v6.1v6.1v6.1h6.1h6.1h12.2h6.1h6.1v-6.1v-6.1v-6.1h24.5v6.1v6.1v6.1h6.1h6.1h12.2h6.1h6.1v-6.1v-6.1
		v-6.1h18.3V189.2z"/>
	<rect x="88.3" y="54.7" class="st0" width="12.2" height="30.6"/>
	<polygon class="st0" points="161.7,73 161.7,54.7 149.5,54.7 149.5,73 149.5,85.2 161.7,85.2 	"/>
	<path class="st0" d="M112.6,121.5h-5.3L94,132.9l2.1,2.9c0.1,0.2,0.3,0.3,0.5,0.4c0.2,0.1,0.5,0.2,0.7,0.3c0.3,0.1,0.6,0.1,0.9,0
		c0.3-0.1,0.6-0.2,0.9-0.5l7.1-6c-0.1,1-0.1,2-0.1,3v27.6h-9.2v5h24v-5h-8.3V121.5z"/>
	<path class="st0" d="M128.1,126.1c0,0.4,0.2,0.8,0.5,1.1c0.3,0.3,0.7,0.5,1.1,0.5h22c-0.4,0.5-0.8,1-1.1,1.5
		c-0.3,0.5-0.7,1.1-1,1.7l-17.7,34.8h4.8c0.9,0,1.6-0.2,2.2-0.7c0.6-0.5,1-1,1.3-1.6l17.4-35.4c0.2-0.4,0.4-0.8,0.6-1.3
		c0.2-0.5,0.3-1.2,0.3-2.1v-2.9h-30.2V126.1z"/>
</g>
</svg>
