<?xml version="1.0" encoding="utf-8"?>
<!-- Generator: Adobe Illustrator 23.1.1, SVG Export Plug-In . SVG Version: 6.00 Build 0)  -->
<svg version="1.1" id="Layer_1" xmlns="http://www.w3.org/2000/svg" xmlns:xlink="http://www.w3.org/1999/xlink" x="0px" y="0px"
	 viewBox="0 0 250 250" style="enable-background:new 0 0 250 250;" xml:space="preserve">
<style type="text/css">
	.st0{fill:#4D4D4D;}
</style>
<g>
	<g>
		<rect x="78.1" y="42.9" class="st0" width="15.6" height="39.1"/>
		<polygon class="st0" points="171.9,66.4 171.9,42.9 156.3,42.9 156.3,66.4 156.3,82 171.9,82 		"/>
		<path class="st0" d="M179.7,66.4V82v7.8h-7.8h-15.6h-7.8V82V66.4h-46.9V82v7.8h-7.8H78.1h-7.8V82V66.4H31.2v140.7h187.6V66.4
			H179.7z M211,199.2H39v-125h23.4V82v7.8v7.8h7.8h7.8h15.6h7.8h7.8v-7.8V82v-7.8h31.3V82v7.8v7.8h7.8h7.8h15.6h7.8h7.8v-7.8V82
			v-7.8H211V199.2z"/>
		<rect x="70.3" y="160.2" class="st0" width="109.4" height="7.8"/>
		<rect x="70.3" y="128.9" class="st0" width="109.4" height="7.8"/>
	</g>
</g>
</svg>
