<?xml version="1.0" encoding="utf-8"?>
<!-- Generator: Adobe Illustrator 22.0.1, SVG Export Plug-In . SVG Version: 6.00 Build 0)  -->
<svg version="1.1" id="Layer_1" xmlns="http://www.w3.org/2000/svg" xmlns:xlink="http://www.w3.org/1999/xlink" x="0px" y="0px"
	 viewBox="0 0 250 250" style="enable-background:new 0 0 250 250;" xml:space="preserve">
<style type="text/css">
	.st0{fill-rule:evenodd;clip-rule:evenodd;fill:#fff;}
</style>
<path class="st0" d="M39,205c1.9-7,3.6-13.8,5.5-20.6c0.1-0.6,0.9-1.2,1.5-1.5c2.4-1.2,5.1-1.9,7.2-3.4c8.8-6.6,15.2-15.2,18.6-25.7
	c0.8-2.4,1.2-5.1,1.2-7.7c0.1-11.6,0.1-23.1,0.1-34.7c0-8.1,1.1-16.1,4.2-23.6c6.4-15.7,18.7-24.3,34.8-28.1c4.1-1,4.1-0.9,4.1-5.2
	c0-5.8,3.7-9.7,9-9.6c4.7,0.1,8.4,3.7,8.6,8.3c0.1,1.8-0.5,4.2,0.5,5.4c0.9,1.2,3.4,1.1,5.2,1.5c21.2,5.3,35.1,20.8,36.7,42.5
	c1,12.4,1.1,24.9,0.5,37.3c-0.8,15.9,6.7,27.5,17.7,37.7c2.8,2.6,5.9,4.6,9.7,5.3c0.5,0.1,1.3,0.8,1.4,1.4
	c1.9,6.8,3.6,13.6,5.5,20.7C153.7,205,96.5,205,39,205z"/>
</svg>
