<?xml version="1.0" encoding="utf-8"?>
<!-- Generator: Adobe Illustrator 22.0.1, SVG Export Plug-In . SVG Version: 6.00 Build 0)  -->
<svg version="1.1" id="Layer_1" xmlns="http://www.w3.org/2000/svg" xmlns:xlink="http://www.w3.org/1999/xlink" x="0px" y="0px"
	 viewBox="0 0 250 250" style="enable-background:new 0 0 250 250;" xml:space="preserve">
<style type="text/css">
	.st0{fill:#FFFFFF;}
	.st1{fill:#253B80;}
	.st2{fill:#189BD7;}
</style>
<g id="Page-1_4_">
	<g id="paypal_1_">
		<path id="Shape_6_" class="st0" d="M193,75.3H57c-6.2,0-11.2,4.9-11.2,10.9v77.6c0,6,5,10.9,11.2,10.9h136
			c6.2,0,11.2-4.9,11.2-10.9V86.2C204.2,80.2,199.1,75.3,193,75.3z"/>
		<g id="Group_3_" transform="translate(54.000000, 150.000000)">
			<path class="st1" d="M26.3-41.3c-1.7-1.2-3.9-1.7-6.6-1.7H9.1c-0.8,0-1.3,0.4-1.4,1.3L3.5-14.8c0,0.3,0,0.5,0.2,0.7
				c0.2,0.2,0.4,0.3,0.7,0.3h5c0.9,0,1.4-0.4,1.5-1.3l1.2-7.3c0-0.4,0.2-0.6,0.5-0.9c0.3-0.2,0.6-0.4,1-0.4c0.4-0.1,0.8-0.1,1.1-0.1
				c0.4,0,0.8,0,1.3,0.1c0.5,0,0.8,0.1,0.9,0.1c3.8,0,6.8-1.1,8.9-3.2c2.2-2.1,3.2-5.1,3.2-8.9C28.9-38.2,28-40.1,26.3-41.3z
				 M20.9-33.2c-0.2,1.5-0.8,2.6-1.7,3c-0.9,0.5-2.2,0.7-4,0.7L13-29.4l1.1-7.1c0.1-0.5,0.4-0.7,0.9-0.7h1.3c1.8,0,3,0.3,3.8,0.8
				C20.9-35.9,21.1-34.8,20.9-33.2z"/>
			<path class="st2" d="M137.7-43h-4.9c-0.5,0-0.8,0.2-0.9,0.7l-4.3,27.4l-0.1,0.1c0,0.2,0.1,0.4,0.3,0.6c0.2,0.2,0.4,0.3,0.7,0.3
				h4.4c0.8,0,1.3-0.4,1.4-1.3l4.3-27v-0.1C138.6-42.7,138.3-43,137.7-43z"/>
			<path class="st1" d="M78.7-32.4c0-0.2-0.1-0.4-0.3-0.6c-0.2-0.2-0.4-0.3-0.6-0.3h-5.1c-0.5,0-0.9,0.2-1.2,0.7l-7,10.3l-2.9-9.9
				c-0.2-0.7-0.7-1.1-1.5-1.1h-4.9c-0.2,0-0.4,0.1-0.6,0.3c-0.2,0.2-0.3,0.4-0.3,0.6c0,0.1,0.4,1.4,1.3,3.9c0.9,2.5,1.8,5.2,2.8,8.1
				c1,2.9,1.5,4.4,1.6,4.6c-3.6,4.9-5.4,7.6-5.4,7.9c0,0.6,0.3,0.9,0.9,0.9h5.1c0.5,0,0.9-0.2,1.2-0.7l16.8-24.3
				C78.7-32,78.7-32.2,78.7-32.4z"/>
			<path class="st2" d="M126-33.3h-5c-0.6,0-1,0.7-1.1,2.2c-1.1-1.8-3.2-2.6-6.3-2.6c-3.2,0-5.9,1.2-8.1,3.6
				c-2.2,2.4-3.3,5.2-3.3,8.4c0,2.6,0.8,4.7,2.3,6.2c1.5,1.5,3.6,2.3,6.1,2.3c1.3,0,2.6-0.3,3.9-0.8c1.3-0.5,2.4-1.2,3.1-2.1
				c0,0,0,0.2-0.1,0.6c-0.1,0.4-0.1,0.6-0.1,0.8c0,0.7,0.3,1.1,0.9,1.1h4.6c0.8,0,1.3-0.4,1.5-1.3l2.7-17.2c0-0.3,0-0.5-0.2-0.7
				C126.5-33.2,126.3-33.3,126-33.3z M117.4-20.3c-1.1,1.1-2.5,1.6-4.1,1.6c-1.3,0-2.3-0.4-3.1-1.1c-0.8-0.7-1.2-1.7-1.2-2.9
				c0-1.6,0.5-3,1.6-4.1c1.1-1.1,2.5-1.7,4.1-1.7c1.2,0,2.3,0.4,3.1,1.1c0.8,0.7,1.2,1.7,1.2,3C119.1-22.8,118.5-21.4,117.4-20.3z"
				/>
			<path class="st1" d="M51.1-33.3h-5c-0.6,0-1,0.7-1.1,2.2c-1.2-1.8-3.3-2.6-6.3-2.6c-3.2,0-5.9,1.2-8.1,3.6
				c-2.2,2.4-3.3,5.2-3.3,8.4c0,2.6,0.8,4.7,2.3,6.2c1.5,1.5,3.6,2.3,6.1,2.3c1.2,0,2.5-0.3,3.8-0.8c1.3-0.5,2.4-1.2,3.2-2.1
				c-0.2,0.5-0.3,1-0.3,1.4c0,0.7,0.3,1.1,0.9,1.1h4.6c0.8,0,1.3-0.4,1.5-1.3l2.7-17.2c0-0.3,0-0.5-0.2-0.7
				C51.6-33.2,51.3-33.3,51.1-33.3z M42.5-20.3c-1.1,1.1-2.5,1.6-4.1,1.6c-1.3,0-2.3-0.4-3.1-1.1c-0.8-0.7-1.2-1.7-1.2-2.9
				c0-1.6,0.5-3,1.6-4.1c1.1-1.1,2.5-1.7,4.1-1.7c1.2,0,2.3,0.4,3.1,1.1c0.8,0.7,1.2,1.7,1.2,3C44.2-22.7,43.6-21.4,42.5-20.3z"/>
			<path class="st2" d="M101.3-41.3c-1.7-1.2-3.9-1.7-6.6-1.7H84.1c-0.9,0-1.4,0.4-1.5,1.3l-4.3,26.9c0,0.3,0,0.5,0.2,0.7
				c0.2,0.2,0.4,0.3,0.7,0.3h5.4c0.5,0,0.9-0.3,1.1-0.9l1.2-7.7c0-0.4,0.2-0.6,0.5-0.9c0.3-0.2,0.6-0.4,1-0.4
				c0.4-0.1,0.8-0.1,1.1-0.1c0.4,0,0.8,0,1.3,0.1c0.5,0,0.8,0.1,0.9,0.1c3.8,0,6.8-1.1,8.9-3.2c2.2-2.1,3.2-5.1,3.2-8.9
				C103.8-38.2,102.9-40.1,101.3-41.3z M94.5-30.4c-1,0.7-2.4,1-4.4,1L88-29.4l1.1-7.1c0.1-0.5,0.4-0.7,0.9-0.7h1.2
				c1,0,1.7,0,2.3,0.1c0.6,0.1,1.1,0.4,1.6,0.8c0.5,0.5,0.8,1.1,0.8,2C95.9-32.3,95.5-31.1,94.5-30.4z"/>
		</g>
	</g>
</g>
</svg>
