<?xml version="1.0" encoding="utf-8"?>
<!-- Generator: Adobe Illustrator 23.1.1, SVG Export Plug-In . SVG Version: 6.00 Build 0)  -->
<svg version="1.1" id="Layer_1" xmlns="http://www.w3.org/2000/svg" xmlns:xlink="http://www.w3.org/1999/xlink" x="0px" y="0px"
	 viewBox="0 0 250 250" style="enable-background:new 0 0 250 250;" xml:space="preserve">
<style type="text/css">
	.st0{fill:#fff;}
</style>
<g>
	<path class="st0" d="M151.9,62.5c4.9,2.1,9.5,4.8,13.7,7.9L160.2,85l-1.3,3.6l2.6,2.8c5,5.4,8.7,11.9,10.9,18.9l1.1,3.6l3.7,0.6
		l15.3,2.6c0.3,2.6,0.5,5.2,0.5,7.9c0,2.6-0.2,5.3-0.5,7.9l-15.3,2.6l-3.7,0.6l-1.1,3.6c-2.2,7-6,13.5-10.9,18.9l-2.6,2.8l1.3,3.6
		l5.4,14.6c-4.2,3.2-8.8,5.8-13.6,7.9l-9.9-12l-2.4-2.9l-3.7,0.8c-3.6,0.8-7.3,1.2-10.9,1.2c-3.7,0-7.3-0.4-10.9-1.2l-3.7-0.8
		l-2.4,2.9l-10,12c-4.8-2.1-9.3-4.7-13.6-7.8l5.3-14.7l1.3-3.6l-2.6-2.8c-5-5.4-8.7-11.9-10.9-18.9l-1.1-3.6l-3.7-0.6l-15.3-2.6
		c-0.3-2.6-0.4-5.3-0.4-7.9c0-2.6,0.1-5.3,0.4-7.9l15.3-2.6l3.7-0.6l1.1-3.6c2.2-7,6-13.5,10.9-18.9l2.6-2.9l-1.4-3.6l-5.6-14.3
		c4.3-3.3,9-6,13.9-8.1l10,12l2.4,2.9l3.7-0.8c3.5-0.8,7.2-1.2,10.9-1.2c3.6,0,7.1,0.4,10.5,1.1l3.6,0.8l2.4-2.8L151.9,62.5
		L151.9,62.5z M125,162.1c20.5,0,37.1-16.7,37.1-37.1c0-20.5-16.6-37.1-37.1-37.1c-20.5,0-37.1,16.6-37.1,37.1
		C87.9,145.5,104.5,162.1,125,162.1L125,162.1z M150.1,55.1l-13.2,15.4c-3.8-0.8-7.8-1.3-11.8-1.3c-4.2,0-8.3,0.5-12.3,1.3
		L99.9,55.1c-8.6,3.1-16.4,7.7-23.2,13.5L84,87.2c-5.5,6-9.8,13.2-12.3,21.2L52,111.8c-0.8,4.3-1.2,8.7-1.2,13.2
		c0,4.5,0.4,8.9,1.2,13.2l19.8,3.4c2.5,8,6.7,15.2,12.3,21.2l-6.9,18.9c6.7,5.6,14.4,10.1,22.8,13.2l12.8-15.4
		c3.9,0.9,8,1.3,12.3,1.3c4.2,0,8.3-0.5,12.3-1.3l12.8,15.4c8.5-3,16.2-7.6,22.9-13.2l-7-18.8c5.5-6,9.8-13.2,12.3-21.2l19.8-3.4
		c0.8-4.3,1.2-8.7,1.2-13.2c0-4.5-0.4-8.9-1.2-13.2l-19.8-3.4c-2.5-8-6.7-15.2-12.3-21.2l7-18.8C166.3,62.7,158.5,58.2,150.1,55.1
		L150.1,55.1z M125,155.9c-17.1,0-30.9-13.8-30.9-30.9c0-17.1,13.8-30.9,30.9-30.9c17.1,0,30.9,13.8,30.9,30.9
		C155.9,142.1,142.1,155.9,125,155.9L125,155.9z"/>
</g>
</svg>
