<?xml version="1.0" encoding="utf-8"?>
<!-- Generator: Adobe Illustrator 22.0.1, SVG Export Plug-In . SVG Version: 6.00 Build 0)  -->
<svg version="1.1" id="Layer_1" xmlns="http://www.w3.org/2000/svg" xmlns:xlink="http://www.w3.org/1999/xlink" x="0px" y="0px"
	 viewBox="0 0 250 250" style="enable-background:new 0 0 250 250;" xml:space="preserve">
<style type="text/css">
	.st0{fill:#FFFFFF;}
</style>
<g>
	<g>
		<path class="st0" d="M200.1,85.4h-43.3c-1.4,0-2.5-1.1-2.5-2.5V40.6c0-1,0.6-1.9,1.5-2.3c0.9-0.4,2-0.2,2.7,0.5l43.3,42.4
			c0.7,0.7,0.9,1.8,0.6,2.7C202,84.8,201.1,85.4,200.1,85.4z M159.2,80.5h34.9l-34.9-34.1V80.5z"/>
	</g>
	<g>
		<path class="st0" d="M196.1,205.7H82.2c-3.6,0-6.5-2.9-6.5-6.4v-76c0-1.4,1.1-2.5,2.5-2.5s2.5,1.1,2.5,2.5v76
			c0,0.8,0.7,1.5,1.6,1.5h113.9c0.9,0,1.6-0.7,1.6-1.5V84l-41.9-41H82.2c-0.9,0-1.6,0.7-1.6,1.5v28.3c0,1.4-1.1,2.5-2.5,2.5
			s-2.5-1.1-2.5-2.5V44.5c0-3.5,2.9-6.4,6.5-6.4h74.6c0.6,0,1.3,0.3,1.7,0.7l43.3,42.4c0.5,0.5,0.7,1.1,0.7,1.8v116.3
			C202.6,202.8,199.6,205.7,196.1,205.7z"/>
	</g>
	<g>
		<g>
			<path class="st0" d="M137.1,178.2H95.4c-1.4,0-2.5-1.1-2.5-2.5s1.1-2.5,2.5-2.5h41.7c1.4,0,2.5,1.1,2.5,2.5
				S138.5,178.2,137.1,178.2z"/>
		</g>
		<g>
			<path class="st0" d="M182.8,178.2h-22.3c-1.4,0-2.5-1.1-2.5-2.5s1.1-2.5,2.5-2.5h22.3c1.4,0,2.5,1.1,2.5,2.5
				S184.2,178.2,182.8,178.2z"/>
		</g>
		<g>
			<path class="st0" d="M111.4,160.3H95.4c-1.4,0-2.5-1.1-2.5-2.5s1.1-2.5,2.5-2.5h15.9c1.4,0,2.5,1.1,2.5,2.5
				S112.7,160.3,111.4,160.3z"/>
		</g>
		<g>
			<path class="st0" d="M182.8,160.3H151c-1.4,0-2.5-1.1-2.5-2.5s1.1-2.5,2.5-2.5h31.8c1.4,0,2.5,1.1,2.5,2.5
				S184.2,160.3,182.8,160.3z"/>
		</g>
		<g>
			<path class="st0" d="M96.1,142.3h-1.3c-1.4,0-2.5-1.1-2.5-2.5s1.1-2.5,2.5-2.5h1.3c1.4,0,2.5,1.1,2.5,2.5S97.4,142.3,96.1,142.3z
				"/>
		</g>
		<g>
			<path class="st0" d="M182.8,142.3h-40.6c-1.4,0-2.5-1.1-2.5-2.5s1.1-2.5,2.5-2.5h40.6c1.4,0,2.5,1.1,2.5,2.5
				S184.2,142.3,182.8,142.3z"/>
		</g>
		<g>
			<path class="st0" d="M182.8,124.4h-58.6c-1.4,0-2.5-1.1-2.5-2.5s1.1-2.5,2.5-2.5h58.6c1.4,0,2.5,1.1,2.5,2.5
				S184.2,124.4,182.8,124.4z"/>
		</g>
		<g>
			<path class="st0" d="M182.8,106.4H109c-1.4,0-2.5-1.1-2.5-2.5s1.1-2.5,2.5-2.5h73.8c1.4,0,2.5,1.1,2.5,2.5
				S184.2,106.4,182.8,106.4z"/>
		</g>
		<g>
			<path class="st0" d="M146.6,88.4H95.4c-1.4,0-2.5-1.1-2.5-2.5s1.1-2.5,2.5-2.5h51.2c1.4,0,2.5,1.1,2.5,2.5S148,88.4,146.6,88.4z"
				/>
		</g>
		<g>
			<path class="st0" d="M144.6,70.5H95.4c-1.4,0-2.5-1.1-2.5-2.5s1.1-2.5,2.5-2.5h49.1c1.4,0,2.5,1.1,2.5,2.5S145.9,70.5,144.6,70.5
				z"/>
		</g>
	</g>
	<g>
		<g>
			<path class="st0" d="M153.3,179.6c-0.4,0-0.8-0.1-1.2-0.3l-31.2-17.2c-0.2-0.1-0.4-0.3-0.6-0.5L30,66.1c-0.9-1-0.9-2.5,0.1-3.5
				l15.8-14.9c0.5-0.5,1.1-0.7,1.8-0.7c0.6,0,1.3,0.3,1.7,0.8l90.3,95.5c0.2,0.2,0.3,0.4,0.4,0.6l15.4,32.1c0.5,1,0.2,2.1-0.5,2.8
				C154.5,179.3,153.9,179.6,153.3,179.6z M123.6,158l24.1,13.3l-11.9-24.8L47.5,53L35.3,64.5L123.6,158z"/>
		</g>
		<g>
			<path class="st0" d="M46.7,82.6c-0.7,0-1.3-0.3-1.8-0.8c-0.9-1-0.9-2.5,0.1-3.5l15.5-14.7c1-0.9,2.5-0.9,3.5,0.1
				c0.9,1,0.9,2.5-0.1,3.5L48.4,82C47.9,82.4,47.3,82.6,46.7,82.6z"/>
		</g>
		<g>
			<path class="st0" d="M52.8,89c-0.7,0-1.3-0.3-1.8-0.8c-0.9-1-0.9-2.5,0.1-3.5l15.5-14.7c1-0.9,2.5-0.9,3.5,0.1
				c0.9,1,0.9,2.5-0.1,3.5L54.4,88.4C54,88.8,53.4,89,52.8,89z"/>
		</g>
		<g>
			<path class="st0" d="M122.1,162.4c-0.3,0-0.6-0.1-0.9-0.2c-1.3-0.5-1.9-1.9-1.4-3.2l4.4-11.1c0.3-0.7,0.8-1.2,1.5-1.4l11.4-3.8
				c1.3-0.4,2.7,0.3,3.1,1.6c0.4,1.3-0.3,2.7-1.6,3.1l-10.3,3.4l-4,10.1C124,161.8,123.1,162.4,122.1,162.4z"/>
		</g>
		<g>
			<path class="st0" d="M126.5,151.2c-0.7,0-1.3-0.3-1.8-0.8L59.1,81.1c-0.9-1-0.9-2.5,0.1-3.5c1-0.9,2.5-0.9,3.5,0.1l65.6,69.4
				c0.9,1,0.9,2.5-0.1,3.5C127.7,151,127.1,151.2,126.5,151.2z"/>
		</g>
		<g>
			<path class="st0" d="M144.9,173.7c-0.7,0-1.3-0.3-1.8-0.8c-0.9-1-0.9-2.5,0.1-3.5l3-2.8c1-0.9,2.5-0.9,3.5,0.1
				c0.9,1,0.9,2.5-0.1,3.5l-3,2.8C146.1,173.5,145.5,173.7,144.9,173.7z"/>
		</g>
	</g>
</g>
</svg>
