<?xml version="1.0" encoding="utf-8"?>
<!-- Generator: Adobe Illustrator 22.0.1, SVG Export Plug-In . SVG Version: 6.00 Build 0)  -->
<svg version="1.1" id="Layer_1" xmlns="http://www.w3.org/2000/svg" xmlns:xlink="http://www.w3.org/1999/xlink" x="0px" y="0px"
	 viewBox="0 0 250 250" style="enable-background:new 0 0 250 250;" xml:space="preserve">
<style type="text/css">
	.st0{opacity:0.1;fill:#EF4445;}
	.st1{opacity:0.1;}
	.st2{fill:#EF4445;}
	.st3{fill:#9C182F;}
</style>
<g>
	<circle class="st0" cx="120.5" cy="125" r="71.4"/>
	<g class="st1">
		<path class="st2" d="M120.5,225.3c-55.3,0-100.3-45-100.3-100.3s45-100.3,100.3-100.3c55.3,0,100.3,45,100.3,100.3
			S175.8,225.3,120.5,225.3z M120.5,26.1C66,26.1,21.6,70.4,21.6,125s44.4,98.9,98.9,98.9s98.9-44.4,98.9-98.9
			S175.1,26.1,120.5,26.1z"/>
	</g>
	<g>
		<path class="st3" d="M173.7,214.2l-4.8-4.9c-1.1-1.1-1.1-3,0.1-4.1c1.1-1.1,3-1.1,4.1,0.1l0.6,0.6l0.6-0.6
			c1.1-1.1,2.9-1.2,4.1-0.1c1.1,1.1,1.2,2.9,0.1,4.1L173.7,214.2z"/>
	</g>
	<g>
		<path class="st3" d="M220.1,123.8l-8.2-8.4c-1.9-2-1.9-5.1,0.1-7c2-1.9,5.1-1.9,7,0.1l1,1.1l1-1.1c1.9-2,5.1-2,7-0.1
			c2,1.9,2,5.1,0.1,7L220.1,123.8z"/>
	</g>
	<g>
		<path class="st3" d="M51.9,153.3l-8.2-8.4c-1.9-2-1.9-5.1,0.1-7s5.1-1.9,7,0.1l1,1.1l1-1.1c1.9-2,5.1-2,7-0.1c2,1.9,2,5.1,0.1,7
			L51.9,153.3z"/>
	</g>
	<g>
		<path class="st3" d="M28.3,92.4l-4.9-5.1c-1.1-1.2-1.1-3.1,0.1-4.2c1.2-1.1,3.1-1.1,4.2,0.1l0.6,0.6l0.6-0.6
			c1.1-1.2,3-1.2,4.2-0.1c1.2,1.1,1.2,3,0.1,4.2L28.3,92.4z"/>
	</g>
	<g>
		<path class="st3" d="M156.7,38l-4.1-4.2c-1-1-0.9-2.6,0.1-3.5c1-1,2.6-0.9,3.5,0.1l0.5,0.5l0.5-0.5c1-1,2.5-1,3.5-0.1
			c1,1,1,2.5,0.1,3.5L156.7,38z"/>
	</g>
	<g>
		<path class="st3" d="M149.9,100.6c0.3,0.3,0.6,0.4,0.9,0.4c0.3,0,0.7-0.1,0.9-0.4l6.9-6.9c0.5-0.5,0.5-1.3,0-1.8
			c-0.5-0.5-1.3-0.5-1.8,0l-6,6l-1.6-1.6c-0.5-0.5-1.3-0.5-1.8,0c-0.5,0.5-0.5,1.3,0,1.8L149.9,100.6z"/>
		<path class="st3" d="M156.8,153.8h-6.7v-45h2.8c0.5,0,1-0.3,1.2-0.8c6.3-0.6,11.3-6,11.3-12.4c0-6.9-5.6-12.5-12.5-12.5
			c-6.5,0-11.8,4.9-12.4,11.2h-11.8c0,0,0,0,0,0h-16.2c0,0,0,0,0,0H88.2c-0.7,0-1.3,0.6-1.3,1.3v12c0,0.7,0.6,1.3,1.3,1.3H91v45
			h-1.9c-0.7,0-1.3,0.6-1.3,1.3c0,0.7,0.6,1.3,1.3,1.3h3.2c0,0,0,0,0,0h22.9h10.7h22.9c0,0,0,0,0,0h7.9c0.7,0,1.3-0.6,1.3-1.3
			C158,154.4,157.5,153.8,156.8,153.8z M147.5,153.8h-20.4v-45h1.5h18.9V153.8z M113.7,96.8h13.6v9.4h-13.6V96.8z M146.4,106.3
			h-16.5v-9.4h10.5C140.9,100.8,143.2,104.3,146.4,106.3z M124.6,109.2v44.6h-8.1v-44.6H124.6z M152.9,85.6c5.5,0,9.9,4.5,9.9,9.9
			s-4.5,9.9-9.9,9.9c-5.5,0-9.9-4.4-9.9-9.9c0,0,0,0,0,0c0,0,0,0,0,0C143,90.1,147.4,85.6,152.9,85.6z M89.5,96.8h21.7v9.4H89.5
			V96.8z M93.6,108.8h18.9h1.5v45H93.6V108.8z"/>
		<path class="st3" d="M164.8,153.8h-4.6c-0.7,0-1.3,0.6-1.3,1.3c0,0.7,0.6,1.3,1.3,1.3h4.6c0.7,0,1.3-0.6,1.3-1.3
			C166.1,154.4,165.5,153.8,164.8,153.8z"/>
		<path class="st3" d="M85.6,153.8h-9.3c-0.7,0-1.3,0.6-1.3,1.3c0,0.7,0.6,1.3,1.3,1.3h9.3c0.7,0,1.3-0.6,1.3-1.3
			C86.9,154.4,86.3,153.8,85.6,153.8z"/>
	</g>
</g>
</svg>
