<?xml version="1.0" encoding="utf-8"?>
<!-- Generator: Adobe Illustrator 23.1.1, SVG Export Plug-In . SVG Version: 6.00 Build 0)  -->
<svg version="1.1" id="Layer_1" xmlns="http://www.w3.org/2000/svg" xmlns:xlink="http://www.w3.org/1999/xlink" x="0px" y="0px"
	 viewBox="0 0 250 250" style="enable-background:new 0 0 250 250;" xml:space="preserve">
<style type="text/css">
	.st0{fill:#4D4D4D;}
</style>
<g>
	<g>
		<path class="st0" d="M125,57.2c-37.5,0-67.8,30.4-67.8,67.8c0,37.5,30.4,67.8,67.8,67.8c37.5,0,67.8-30.4,67.8-67.8
			C192.8,87.5,162.5,57.2,125,57.2z M125,186.7c-34,0-61.7-27.7-61.7-61.7c0-34,27.7-61.7,61.7-61.7c34,0,61.7,27.7,61.7,61.7
			C186.7,159,159,186.7,125,186.7z"/>
		<polygon class="st0" points="131.2,75.7 118.8,75.7 118.8,127.5 145.3,154 154,145.3 131.2,122.4 		"/>
	</g>
</g>
</svg>
