<?xml version="1.0" encoding="utf-8"?>
<!-- Generator: Adobe Illustrator 23.1.1, SVG Export Plug-In . SVG Version: 6.00 Build 0)  -->
<svg version="1.1" id="Layer_1" xmlns="http://www.w3.org/2000/svg" xmlns:xlink="http://www.w3.org/1999/xlink" x="0px" y="0px"
	 viewBox="0 0 250 250" style="enable-background:new 0 0 250 250;" xml:space="preserve">
<style type="text/css">
	.st0{fill:#4D4D4D;}
</style>
<g id="XMLID_70_">
	<g>
		<path id="XMLID_76_" class="st0" d="M193.3,151.8c3.1-8.8,3.1-18.1,2.6-27.3c-0.6-12.3-1.7-24.6-2.8-36.9
			c-0.7-7.8-6.4-13.2-13.4-13.2c-2.6,0-5,0.7-7,2c2.5-8.7-0.8-14.1-12.5-18.3c-0.1,0-0.1-0.1-0.1-0.1c0.2-6.3-1.3-10.1-6.9-13.3
			c-5.7-3.3-11.2-3.7-16.3,2.8c0,0-1.4,1.7-1.4,1.7c-0.8-3.5-3.7-5.7-6.1-6.8c-4-1.7-7.6-1.7-10.9,0c-1,0.3-2.1,0.6-3.1,1.1
			c-2.3,1.1-5.2,3.5-5.8,7c0,0.1-1.4-1.6-1.4-1.6c-5.3-6.3-10.8-5.7-16.4-2.2c-5.5,3.4-6.8,7.3-6.3,13.6c0,0.1,0,0.1-0.1,0.1
			c-10.7,4.3-14.1,9.4-12.3,16.9c-2-1-4.3-1.6-6.6-1.5c-7,0.3-12.5,5.8-12.9,13.7c-0.6,12.3-1.2,24.6-1.3,37
			c-0.1,9.2,0.2,18.5,3.7,27.2l-12.1,20.2l58.5,35.1l13.3-22.2c3-0.8,5.9-2,8.8-3.6c3.4,1.9,6.8,3.3,10.4,4.1l14.2,21.6l57.1-37.4
			L193.3,151.8z M153.9,70.4c2.7-4.6,5.6-5.8,9.2-4c3.8,1.9,4.8,4.9,2.2,9.6c-2.2,4-4.5,7.9-6.7,11.9c-2.6-4-5.3-8-7.9-12.1
			C151.7,74.1,152.8,72.3,153.9,70.4z M165.3,91.9c-0.1,1.5-0.2,3.2-0.4,5.1c0,0.1-0.2,0.2-0.2,0.1c-0.8-1.1-1.4-1.9-1.9-2.6
			C163.5,93.4,164.4,92.5,165.3,91.9z M140.1,54.4c2.5-4.1,5.4-5.4,8.7-4.1c4.3,1.8,5.4,5.9,2.7,10.5c-1.7,2.9-3.4,5.7-5.1,8.6
			c-2.6-4-5.3-8.1-7.9-12.1C138.9,56.3,139.5,55.4,140.1,54.4z M116.9,178.9c-1.3,0.5-2.7,0.9-4.2,1.2l-3.8,6.3l-0.9,1.5l-8.8,14.7
			l-48.4-29l8.2-13.6l1.1-1.9l2.9-4.9c-0.5-1.1-1-2.3-1.4-3.5c-0.4-1.3-0.8-2.6-1.1-3.9c-0.6-2.6-0.9-5.3-0.9-8.1
			c-0.2-15.8,0.3-31.7,0.7-47.5c0.1-4.3,2.9-7.2,6.2-7.3c3-0.2,5.4,1.4,6.6,4.3c-0.9,0.5-1.7,1.1-2.7,2.2c-4.9,5.5-5.5,13.7-1.5,20
			c11.5,18.3,23.2,36.4,35.1,54.4c2.3,3.5,4.9,6.8,7.9,9.8c1.8,1.9,3.7,3.6,5.6,5.1C117.5,178.7,117.2,178.8,116.9,178.9z
			 M142.5,188.1l-1-1.5l-4-6.2c-1.4-0.3-2.9-0.6-4.2-1c-1.7-0.5-3.2-1.1-4.8-1.9c-6.8-3.3-12.4-8.7-17-15.4
			c-6.3-9-12.1-18.4-18.1-27.6c-6.3-9.7-12.7-19.3-18.9-29c-1.1-1.7-2.8-4.1-2.5-7c0.3-2.1,1.4-3.4,3-4.5c1.4-1,4.5-0.8,6.2,0.1
			c1.9,0.9,3.3,3.1,4.6,5c3,4.4,5.9,8.9,8.8,13.3c1.4,2.2,2.9,4.3,4.3,6.5c1.5,2.3,4.5,8.6,8,6.2c3.2-2.3-1-7.4-2.4-9.5
			c-1.4-2.2-2.9-4.3-4.3-6.5C93.9,99,87.3,88.9,81,78.5c-2.8-4.7-1.9-7.7,1.8-9.7c3.5-1.9,6.4-0.8,9.3,3.7
			c7.6,11.6,15.2,23.2,22.8,34.8c1.1,1.6,1.7,3,3.7,3.6c1.5,0.5,2.9,0.2,3.5-1.3c0.9-2.6,0.2-3.9-1.2-6
			c-8.9-13.6-17.9-27.3-26.8-40.9c-2.9-4.5-2-8.6,2.3-10.5c3.2-1.4,6.2-0.2,8.8,3.8c9.1,13.9,18.2,27.7,27.2,41.6
			c1.5,2.3,3.3,4.2,5.9,2.3c2.5-1.8,1.1-4-0.2-6.1c-7-10.7-14-21.4-21-32.1c-0.9-1.4-1.9-2.9-2.4-4.5c-1.1-3.6,1.4-7.4,5.1-8
			c3.8-0.7,5.7,1.6,7.4,4.3c11.9,18.2,23.7,36.4,35.8,54.5c1.1,1.7,3.4,3.6,5.1,3.6c3.2-0.1,2.9-3.4,3-5.7
			c0.5-5.8,0.7-11.6,1.3-17.4c0.5-4.5,3.3-7.1,7-7c3.4,0,6.2,2.8,6.5,7.1c1,15.8,2.1,31.6,2.5,47.5c0.1,2.8-0.1,5.5-0.6,8.2
			c-0.2,1.4-0.6,2.7-0.9,4c-0.4,1.2-0.8,2.4-1.2,3.5l3.1,4.8l1.2,1.8l8.7,13.3l-47.2,30.9L142.5,188.1z"/>
		<path id="XMLID_73_" class="st0" d="M155.6,115.3c-5.2,0-9.9,2.8-12.6,7.4c-2.7-4.5-7.5-7.4-12.6-7.4c-6.3,0-11.9,4.2-14.1,10.5
			c-0.6,1.8-0.9,3.6-0.9,5.4c0,1.8,0.3,3.6,0.8,5.2c0.1,0.2,0.1,0.3,0.2,0.5l2.3-1.1l-2.3,1.1l2.3-1.1l-2.3,1.1
			c0,0.1,0.1,0.1,0.1,0.2c0.6,1.7,1.5,3.1,2.5,4.4c0.5,0.6,1,1.2,1.6,1.7L143,167l23.2-24.6c1.5-1.6,2.7-3.7,3.5-5.8
			c0.6-1.7,0.9-3.5,0.9-5.4C170.6,122.4,163.9,115.3,155.6,115.3z M164.9,134.9c-0.5,1.5-1.3,2.9-2.4,4L143,159.5l-18.8-19.9
			l-0.1-0.1c-0.4-0.4-0.8-0.8-1.1-1.2c-0.7-0.8-1.2-1.8-1.7-3c-0.1-0.2-0.2-0.4-0.3-0.6c-0.4-1.1-0.6-2.3-0.6-3.6
			c0-1.3,0.2-2.5,0.6-3.8c1.4-4.2,5.1-7,9.2-7c3.8,0,7.3,2.5,8.9,6.3c0.6,1.5,2.1,2.4,3.7,2.4c1.6,0,3.1-1,3.7-2.4
			c1.6-3.8,5.1-6.3,8.9-6.3c5.4,0,9.9,4.8,9.9,10.8C165.5,132.5,165.3,133.7,164.9,134.9z"/>
	</g>
</g>
</svg>
