<?xml version="1.0" encoding="utf-8"?>
<!-- Generator: Adobe Illustrator 23.1.1, SVG Export Plug-In . SVG Version: 6.00 Build 0)  -->
<svg version="1.1" id="Layer_1" xmlns="http://www.w3.org/2000/svg" xmlns:xlink="http://www.w3.org/1999/xlink" x="0px" y="0px"
	 viewBox="0 0 250 250" style="enable-background:new 0 0 250 250;" xml:space="preserve">
<style type="text/css">
	.st0{fill:#4D4D4D;}
</style>
<g>
	<g>
		<path class="st0" d="M125,67.1c-51.9,0-86.8,57.9-86.8,57.9s35,57.9,86.8,57.9s86.8-57.9,86.8-57.9S176.9,67.1,125,67.1z
			 M125,175.7c-39.7,0-69.6-38.4-78.2-50.7c8.5-12.3,38.4-50.7,78.2-50.7c39.7,0,69.6,38.4,78.2,50.7
			C194.6,137.3,164.7,175.7,125,175.7z"/>
		<path class="st0" d="M125,88.8c-20,0-36.2,16.2-36.2,36.2c0,20,16.2,36.2,36.2,36.2c20,0,36.2-16.2,36.2-36.2
			C161.2,105,145,88.8,125,88.8z M125,154c-16,0-28.9-13-28.9-29c0-16,13-28.9,28.9-28.9c16,0,28.9,13,28.9,28.9
			C153.9,141,141,154,125,154z"/>
	</g>
</g>
</svg>
