<?xml version="1.0" encoding="utf-8"?>
<!-- Generator: Adobe Illustrator 22.0.1, SVG Export Plug-In . SVG Version: 6.00 Build 0)  -->
<svg version="1.1" id="Layer_1" xmlns="http://www.w3.org/2000/svg" xmlns:xlink="http://www.w3.org/1999/xlink" x="0px" y="0px"
	 viewBox="0 0 250 250" style="enable-background:new 0 0 250 250;" xml:space="preserve">
<style type="text/css">
	.st0{fill:#184892;}
	.st1{fill:#FFFFFF;}
</style>
<g id="Page-1_5_">
	<g id="visa_1_">
		<path id="Rectangle-1_3_" class="st0" d="M54.3,75.3h141.4c4.7,0,8.4,3.8,8.4,8.4v82.5c0,4.7-3.8,8.4-8.4,8.4H54.3
			c-4.7,0-8.4-3.8-8.4-8.4V83.7C45.8,79.1,49.6,75.3,54.3,75.3z"/>
		<polygon id="Shape_7_" class="st1" points="104.6,145.8 111.6,104.5 122.9,104.5 115.8,145.8 		"/>
		<path id="path13_1_" class="st1" d="M156.5,105.4c-2.2-0.8-5.7-1.7-10.1-1.7c-11.1,0-19,5.6-19,13.6c-0.1,5.9,5.6,9.2,9.9,11.2
			c4.4,2,5.9,3.3,5.8,5.1c0,2.8-3.5,4-6.7,4c-4.5,0-6.9-0.6-10.6-2.2l-1.5-0.7l-1.6,9.2c2.6,1.2,7.5,2.2,12.5,2.2
			c11.8,0,19.5-5.5,19.6-14.1c0-4.7-3-8.3-9.5-11.2c-3.9-1.9-6.3-3.2-6.3-5.1c0-1.7,2-3.6,6.4-3.6c3.7-0.1,6.4,0.7,8.4,1.6l1,0.5
			L156.5,105.4"/>
		<path id="Path_1_" class="st1" d="M185.5,104.5h-8.7c-2.7,0-4.7,0.7-5.9,3.4l-16.7,37.9H166c0,0,1.9-5.1,2.4-6.2
			c1.3,0,12.8,0,14.4,0c0.3,1.4,1.4,6.2,1.4,6.2h10.5L185.5,104.5z M171.7,131.2c0.9-2.4,4.5-11.6,4.5-11.6
			c-0.1,0.1,0.9-2.4,1.5-3.9l0.8,3.6c0,0,2.2,9.9,2.6,11.9L171.7,131.2L171.7,131.2z"/>
		<path id="path16_1_" class="st1" d="M55.5,104.5l-0.1,0.9c4.5,1.1,8.4,2.6,11.9,4.6l10,35.8l11.9,0l17.7-41.2H95l-11,28.2
			l-1.2-5.7c-0.1-0.2-0.1-0.4-0.2-0.5L78.8,108c-0.7-2.6-2.7-3.4-5.1-3.5H55.5z"/>
	</g>
</g>
</svg>
