<?xml version="1.0" encoding="utf-8"?>
<!-- Generator: Adobe Illustrator 22.0.1, SVG Export Plug-In . SVG Version: 6.00 Build 0)  -->
<svg version="1.1" id="Layer_1" xmlns="http://www.w3.org/2000/svg" xmlns:xlink="http://www.w3.org/1999/xlink" x="0px" y="0px"
	 viewBox="0 0 250 250" style="enable-background:new 0 0 250 250;" xml:space="preserve">
<style type="text/css">
	.st0{fill:#9F172E;}
	.st1{fill:#fff;}
</style>
<g>
	<g>
		<path class="st0" d="M35.4,177.7c-0.3,0-0.7-0.1-1-0.2c-1.1-0.4-1.7-1.4-1.7-2.6V78.2c0-17.7,14.4-32.1,32.1-32.1h82.4
			c17.7,0,32.1,14.4,32.1,32.1v40.8c0,17.7-14.4,32.1-32.1,32.1H61.7l-24.2,25.6C36.9,177.4,36.2,177.7,35.4,177.7z M64.8,51.6
			c-14.7,0-26.6,11.9-26.6,26.6V168l20.3-21.4c0.5-0.6,1.2-0.9,2-0.9h86.7c14.7,0,26.6-11.9,26.6-26.6V78.2
			c0-14.7-11.9-26.6-26.6-26.6H64.8z"/>
	</g>
	<g>
		<path class="st1" d="M225.3,214.2c-0.7,0-1.5-0.3-2-0.9L199,187.7h-85.5c-17.7,0-32.1-14.4-32.1-32.1v-7.2c0-1.5,1.2-2.8,2.8-2.8
			c1.5,0,2.8,1.2,2.8,2.8v7.2c0,14.7,11.9,26.6,26.6,26.6h86.7c0.8,0,1.5,0.3,2,0.9l20.3,21.4v-89.7c0-14.7-11.9-26.6-26.6-26.6
			h-19.3c-1.5,0-2.8-1.2-2.8-2.8c0-1.5,1.2-2.8,2.8-2.8h19.3c17.7,0,32.1,14.4,32.1,32.1v96.7c0,1.1-0.7,2.2-1.7,2.6
			C226,214.2,225.6,214.2,225.3,214.2z"/>
	</g>
	<g>
		<g>
			<path class="st1" d="M72.6,106.3c-2.8,0-5.2-2.3-5.2-5.2s2.3-5.2,5.2-5.2c2.8,0,5.2,2.3,5.2,5.2S75.4,106.3,72.6,106.3z
				 M72.6,100.8l-0.4,0.4c0,0.2,0.2,0.4,0.4,0.4V100.8z"/>
		</g>
		<g>
			<g>
				<path class="st1" d="M106,106.3c-2.8,0-5.2-2.3-5.2-5.2s2.3-5.2,5.2-5.2s5.2,2.3,5.2,5.2S108.8,106.3,106,106.3z M106,100.8
					l-0.4,0.4c0,0.2,0.2,0.4,0.4,0.4V100.8z"/>
			</g>
		</g>
		<g>
			<g>
				<path class="st1" d="M139.4,106.3c-2.8,0-5.2-2.3-5.2-5.2s2.3-5.2,5.2-5.2c2.8,0,5.2,2.3,5.2,5.2S142.3,106.3,139.4,106.3z
					 M139.4,100.8l-0.4,0.4c0,0.2,0.2,0.4,0.4,0.4V100.8z"/>
			</g>
		</g>
	</g>
</g>
</svg>
